<svg width="32" height="32" viewBox="0 0 32 32" fill="none" xmlns="http://www.w3.org/2000/svg">
<path fill-rule="evenodd" clip-rule="evenodd" d="M32 16C32 24.8366 24.8366 32 16 32C7.16344 32 0 24.8366 0 16C0 7.16344 7.16344 0 16 0C24.8366 0 32 7.16344 32 16ZM25.0665 11.1788C24.5344 11.5747 23.2082 11.6791 23.2082 11.6791C24.6258 10.5855 24.5799 9.87753 24.5795 9.87135L24.5795 9.87131C23.6701 10.5203 22.7596 10.599 22.3169 10.5915C21.7129 9.98007 20.8731 9.60059 19.9445 9.60059C18.1066 9.60059 16.6164 11.086 16.6164 12.9173C16.6164 13.2029 16.6529 13.4791 16.7204 13.7428C12.8476 13.9615 9.72276 10.2782 9.72276 10.2782C8.27692 12.7421 10.6089 14.7189 10.6089 14.7189C9.97943 14.812 9.27967 14.3003 9.27967 14.3003C9.23297 17.1136 11.8221 17.6487 11.8221 17.6487C11.3091 17.8811 10.4461 17.6953 10.4461 17.6953C11.169 20.0199 13.4547 19.9968 13.4547 19.9968C11.6827 21.9506 8.5332 21.3919 8.5332 21.3919C11.5418 23.6473 15.6937 22.7632 15.6937 22.7632C23.8805 20.8575 23.3432 13.0766 23.3432 13.0766C24.939 11.6345 25.0665 11.1788 25.0665 11.1788Z" fill="white"/>
</svg>
