<svg width="146" height="45" viewBox="0 0 146 45" fill="none" xmlns="http://www.w3.org/2000/svg">
<path d="M118.937 18.699H103.372C103.167 18.699 103.009 18.5156 103.041 18.3126C103.176 17.4323 103.447 16.6028 103.853 15.8246C104.319 14.9336 104.918 14.1609 105.652 13.506C106.385 12.8516 107.225 12.3387 108.171 11.9677C109.117 11.5979 110.127 11.4122 111.199 11.4122C112.272 11.4122 113.278 11.6015 114.216 11.9799C115.154 12.3584 115.987 12.8757 116.711 13.5293C117.437 14.1841 118.029 14.9568 118.486 15.8482C118.885 16.6257 119.146 17.4488 119.269 18.3169C119.297 18.5184 119.14 18.699 118.937 18.699ZM122.531 19.8348C122.531 19.2422 122.489 18.6643 122.404 18.1001C122.264 17.1776 122.011 16.2925 121.644 15.4461C121.053 14.0816 120.244 12.891 119.219 11.8735C118.49 11.1497 117.674 10.5335 116.772 10.0249C116.407 9.81913 116.028 9.63108 115.635 9.46038C114.271 8.86902 112.808 8.57294 111.246 8.57294C109.701 8.57294 108.242 8.86547 106.87 9.44855C105.497 10.0324 104.303 10.8292 103.286 11.8384C102.268 12.8477 101.46 14.0347 100.86 15.3984C100.262 16.7628 99.9541 18.218 99.9383 19.7634C99.9383 20.1738 100.072 20.5164 100.34 20.7928C100.608 21.0687 100.955 21.2067 101.381 21.2067H119.243C119.243 21.2083 119.243 21.2095 119.242 21.211C119.435 21.211 119.587 21.3719 119.578 21.5635C119.454 23.9754 118.918 26.3156 117.98 28.5356C117.461 29.7613 116.82 30.9436 116.072 32.0498C115.332 33.1458 114.481 34.1764 113.545 35.1131C112.608 36.0498 111.577 36.9001 110.482 37.6405C109.376 38.3876 108.193 39.0294 106.968 39.5479C104.417 40.6265 101.708 41.1733 98.9137 41.1733C96.1197 41.1733 93.4101 40.6265 90.8598 39.5479C89.6341 39.0294 88.4518 38.3876 87.3455 37.6405C86.2499 36.9001 85.2194 36.0498 84.2827 35.1131C84.2799 35.1103 84.2772 35.1079 84.2744 35.1052C84.2074 35.0378 84.1345 34.979 84.0572 34.9286C83.8202 34.7539 83.5285 34.6502 83.2127 34.6502C82.4191 34.6502 81.7761 35.3019 81.7761 36.1062C81.7761 36.3427 81.8321 36.5658 81.9311 36.7633C81.9969 36.9076 82.0888 37.0433 82.2086 37.1631C82.2125 37.167 82.2161 37.171 82.2204 37.1749C83.2884 38.2429 84.4636 39.2127 85.7134 40.0568C86.9753 40.9096 88.3248 41.642 89.724 42.2338C92.6354 43.465 95.7274 44.0895 98.9137 44.0895C102.1 44.0895 105.192 43.465 108.103 42.2338C109.503 41.642 110.852 40.9096 112.114 40.0568C113.364 39.2127 114.539 38.2429 115.607 37.1749C116.675 36.1069 117.645 34.9317 118.489 33.682C119.342 32.42 120.074 31.0705 120.666 29.6714C121.897 26.7599 122.521 23.6679 122.521 20.4817C122.521 20.4352 122.521 20.3887 122.521 20.3421C122.528 20.1742 122.531 20.0051 122.531 19.8348Z" fill="#FF7600"/>
<path d="M0.133124 2.65888C-0.0403407 2.26503 -0.044283 1.88262 0.121297 1.51164C0.286877 1.14106 0.567181 0.876524 0.961419 0.719223C1.32412 0.561527 1.6947 0.557192 2.07317 0.707003C2.45164 0.857208 2.72761 1.12923 2.90107 1.52386L13.3109 25.6781L18.2314 14.3457L13.1923 2.65888C13.0188 2.26503 13.0109 1.88262 13.1686 1.51164C13.3263 1.14106 13.6023 0.876524 13.9965 0.719223C14.3592 0.561527 14.7337 0.557192 15.1205 0.707003C15.5068 0.857208 15.7867 1.12923 15.9602 1.52386L19.8403 10.5846L23.7673 1.52386C23.9412 1.14461 24.2128 0.876524 24.5838 0.719223C24.954 0.561527 25.3289 0.561527 25.7074 0.719223C26.0858 0.876524 26.3582 1.14106 26.5234 1.51164C26.689 1.88262 26.6855 2.26503 26.5116 2.65888L21.4728 14.322L26.346 25.6781L36.8269 1.52386C37.0003 1.14461 37.268 0.876524 37.6311 0.719223C37.9938 0.561527 38.3723 0.561527 38.7665 0.719223C39.1454 0.876524 39.4131 1.14106 39.5708 1.51164C39.7284 1.88262 39.7206 2.26503 39.5475 2.65888L27.7657 29.9366C27.6395 30.2524 27.4385 30.4889 27.1625 30.6462C26.8861 30.8043 26.5983 30.8745 26.2987 30.8591C26.0302 30.8591 25.77 30.7803 25.5181 30.6226C25.2658 30.4653 25.0766 30.2362 24.95 29.9366L19.8403 18.0838L14.7298 29.9366C14.6036 30.2362 14.4148 30.4653 14.1625 30.6226C13.9098 30.7803 13.6421 30.8591 13.3582 30.8591C13.0421 30.8745 12.7507 30.8043 12.4826 30.6462C12.2146 30.4889 12.0174 30.2524 11.8913 29.9366L0.133124 2.65888Z" fill="white"/>
<path d="M40.9594 19.8816C40.9594 21.0174 41.1762 22.0861 41.6098 23.0875C42.0435 24.0889 42.6309 24.9645 43.3725 25.7135C44.114 26.4626 44.9893 27.0583 45.9985 27.4994C47.0078 27.9414 48.0962 28.1621 49.2632 28.1621C50.4305 28.1621 51.5186 27.9414 52.5283 27.4994C53.5371 27.0583 54.4127 26.4626 55.1543 25.7135C55.8955 24.9645 56.4789 24.0889 56.9047 23.0875C57.3305 22.0861 57.5434 21.0174 57.5434 19.8816C57.5434 18.7308 57.3305 17.6498 56.9047 16.6409C56.4789 15.6317 55.8955 14.7521 55.1543 14.0027C54.4127 13.2536 53.5371 12.6623 52.5283 12.2282C51.5186 11.7945 50.4305 11.5777 49.2632 11.5777C48.112 11.5777 47.0314 11.7945 46.0226 12.2282C45.0129 12.6623 44.1334 13.2536 43.3843 14.0027C42.6353 14.7521 42.0435 15.6317 41.6098 16.6409C41.1762 17.6498 40.9594 18.7308 40.9594 19.8816ZM37.9785 19.8816C37.9785 18.3204 38.2742 16.8495 38.8656 15.4696C39.4573 14.0898 40.2651 12.8905 41.2909 11.8734C42.3155 10.8563 43.5144 10.0516 44.8868 9.45987C46.2587 8.86851 47.7178 8.57322 49.2632 8.57322C50.8086 8.57322 52.2598 8.86535 53.6164 9.44843C54.9726 10.0319 56.16 10.8247 57.1771 11.8261C58.1947 12.8278 58.9989 14.0066 59.5903 15.3632C60.1816 16.7194 60.4931 18.1706 60.5246 19.716V19.7637V19.8816V29.3212C60.5246 29.747 60.3787 30.1097 60.087 30.4093C59.7945 30.7089 59.4365 30.8591 59.0103 30.8591C58.5846 30.8591 58.2333 30.7089 57.9577 30.4093C57.6814 30.1097 57.5434 29.747 57.5434 29.3212L57.5201 27.2865C56.4789 28.4381 55.2529 29.3681 53.8415 30.0781C52.4297 30.7882 50.9036 31.1426 49.2632 31.1426C47.7178 31.1426 46.2587 30.8469 44.8868 30.2555C43.5144 29.6638 42.3155 28.8599 41.2909 27.8424C40.2651 26.8249 39.4573 25.6307 38.8656 24.2588C38.2742 22.8864 37.9785 21.4274 37.9785 19.8816Z" fill="white"/>
<path d="M70.2953 8.59603H73.4417C73.8679 8.59603 74.2227 8.73835 74.5069 9.02221C74.7904 9.30606 74.9323 9.65299 74.9323 10.063C74.9323 10.5049 74.7904 10.8676 74.5069 11.1511C74.2227 11.4349 73.8679 11.5773 73.4417 11.5773H70.2953V29.3917C70.2953 29.8021 70.1494 30.1483 69.8577 30.4321C69.5655 30.7164 69.2151 30.8583 68.8051 30.8583C68.3951 30.8583 68.0481 30.7164 67.7639 30.4321C67.48 30.1483 67.3385 29.8021 67.3385 29.3917V11.5773H64.7357C64.3253 11.5773 63.9749 11.4318 63.6835 11.1393C63.391 10.8479 63.2451 10.4892 63.2451 10.063C63.2451 9.65299 63.391 9.30606 63.6835 9.02221C63.9749 8.73835 64.3253 8.59603 64.7357 8.59603H67.3385V2.04261C67.3385 1.61723 67.48 1.26636 67.7639 0.989994C68.0481 0.714422 68.3951 0.576042 68.8051 0.576042C69.2151 0.576042 69.5655 0.714422 69.8577 0.989994C70.1494 1.26636 70.2953 1.61723 70.2953 2.04261V8.59603Z" fill="white"/>
<path d="M146 29.392C146 29.8181 145.858 30.1725 145.574 30.4564C145.29 30.7402 144.935 30.8826 144.51 30.8826C144.099 30.8826 143.752 30.7402 143.468 30.4564C143.184 30.1725 143.043 29.8181 143.043 29.392V19.5033V19.3846C143.011 16.8611 142.447 14.925 141.351 13.5763C140.255 12.228 138.721 11.5539 136.749 11.5539C135.788 11.5539 134.884 11.7431 134.041 12.1216C133.197 12.5 132.456 13.0248 131.817 13.695C131.178 14.3656 130.669 15.158 130.291 16.0726C129.912 16.9876 129.707 17.9736 129.676 19.0294V29.3446C129.676 29.7704 129.53 30.1292 129.238 30.4209C128.946 30.713 128.595 30.8589 128.185 30.8589C127.775 30.8589 127.424 30.713 127.133 30.4209C126.841 30.1292 126.695 29.7704 126.695 29.3446V10.0632C126.695 9.65323 126.845 9.30236 127.145 9.01062C127.444 8.71928 127.799 8.57302 128.209 8.57302C128.619 8.57302 128.966 8.71928 129.25 9.01062C129.534 9.30236 129.676 9.65323 129.676 10.0632V12.5946C130.606 11.3966 131.706 10.4299 132.976 9.6966C134.246 8.96331 135.606 8.59628 137.057 8.59628C138.413 8.59628 139.639 8.84938 140.736 9.35361C141.832 9.85863 142.771 10.5801 143.551 11.5184C144.332 12.4571 144.931 13.5929 145.349 14.925C145.767 16.2579 145.984 17.7442 146 19.3846V19.5033V29.392Z" fill="white"/>
<path d="M78.5285 18.6984C78.6231 17.6888 78.8987 16.7386 79.3564 15.8477C79.8137 14.9563 80.4055 14.1836 81.1313 13.5288C81.8559 12.8751 82.6885 12.3579 83.6268 11.9794C84.5651 11.6009 85.5704 11.4117 86.6431 11.4117C87.7158 11.4117 88.7247 11.5974 89.6717 11.9672C90.6178 12.3382 91.4576 12.8511 92.1908 13.5055C92.9245 14.1603 93.5234 14.933 93.989 15.824C94.4542 16.715 94.7419 17.6734 94.8523 18.6984H78.5285ZM96.982 15.3978C96.382 14.0342 95.5738 12.8471 94.5567 11.8379C93.5395 10.8286 92.3446 10.0319 90.9722 9.44799C89.6007 8.86492 88.1416 8.57239 86.5958 8.57239C85.0346 8.57239 83.5712 8.86847 82.2075 9.45982C81.8062 9.63368 81.4202 9.82607 81.0485 10.0366C80.1555 10.5428 79.3469 11.1547 78.6231 11.873C77.5977 12.8905 76.7899 14.0811 76.1982 15.4455C75.7866 16.3949 75.5181 17.3923 75.3931 18.437C75.3383 18.8935 75.3111 19.3591 75.3111 19.8342C75.3111 19.8815 75.3115 19.9288 75.3119 19.9761C75.3084 20.1441 75.3064 20.3124 75.3064 20.4811C75.3064 23.6674 75.9305 26.7594 77.1621 29.6708C77.3446 30.1017 77.5402 30.5283 77.7487 30.949C77.7487 30.949 77.9375 31.495 78.275 31.7339L78.2766 31.7351C78.7978 32.1857 79.5882 32.205 80.1441 31.7473C80.631 31.3467 80.7934 30.699 80.5967 30.1427C80.577 30.0876 80.5537 30.0328 80.5269 29.9795C80.5198 29.9665 80.5127 29.9527 80.506 29.9393C80.2687 29.4792 80.0487 29.0101 79.848 28.535C78.8636 26.2075 78.3223 23.7466 78.2352 21.2105H78.5999C78.5999 21.2089 78.5995 21.2077 78.5995 21.2062H96.4608C96.887 21.2062 97.2335 21.0682 97.5024 20.7922C97.7701 20.5158 97.9041 20.1732 97.9041 19.7628C97.8884 18.2174 97.5809 16.7623 96.982 15.3978Z" fill="white"/>
<path d="M103.617 4.06144C103.582 4.03424 103.543 4.00941 103.499 3.99048C103.496 3.9889 103.493 3.98772 103.49 3.98693C102.133 3.40346 100.683 3.11133 99.1372 3.11133C99.0501 3.11133 98.9645 3.11567 98.8782 3.11764C98.7958 3.12 98.7138 3.11961 98.6314 3.12355C97.088 3.19846 95.6526 3.55997 94.3259 4.2081C94.3228 4.20928 94.32 4.21086 94.3173 4.21204C94.2743 4.23333 94.2364 4.25975 94.2022 4.28892C93.9372 4.51285 93.938 4.94296 94.2278 5.17556C94.3232 5.25204 94.4143 5.33326 94.5069 5.4125C94.568 5.46533 94.6307 5.515 94.6906 5.56901C95.0072 5.85405 95.3056 6.15643 95.5867 6.47497C95.742 6.65159 95.9821 6.71191 96.2049 6.64292C97.0754 6.31136 97.9979 6.1375 98.9713 6.11976C99.934 6.09374 100.854 6.22305 101.731 6.50966C101.956 6.56722 102.193 6.49587 102.34 6.31176C102.606 5.9802 102.888 5.66363 103.191 5.36361C103.248 5.30684 103.309 5.25362 103.367 5.19843C103.456 5.11446 103.544 5.02891 103.635 4.94809C103.913 4.70208 103.893 4.27236 103.617 4.06144Z" fill="white"/>
</svg>
