<svg width="24" height="24" viewBox="0 0 24 24" fill="none" xmlns="http://www.w3.org/2000/svg">
<path d="M14.13 11.3401C14.52 9.70008 13.09 8.27003 11.45 8.66003C10.68 8.85003 10.05 9.48005 9.85998 10.2501C9.46998 11.8901 10.9 13.32 12.54 12.93C13.32 12.74 13.95 12.1101 14.13 11.3401Z" fill="#FF7600"/>
<path opacity="0.4" d="M6.02002 17.97C5.84002 17.97 5.65001 17.9 5.51001 17.77C3.57001 15.97 2.46002 13.43 2.46002 10.79C2.46002 5.52998 6.74002 1.25 12 1.25C17.26 1.25 21.54 5.52998 21.54 10.79C21.54 13.45 20.47 15.91 18.53 17.74C18.23 18.02 17.75 18.01 17.47 17.71C17.19 17.41 17.2 16.93 17.5 16.65C19.14 15.11 20.04 13.04 20.04 10.8C20.04 6.36999 16.43 2.76001 12 2.76001C7.57002 2.76001 3.96002 6.36999 3.96002 10.8C3.96002 13.06 4.87001 15.14 6.53001 16.68C6.83001 16.96 6.85002 17.44 6.57002 17.74C6.42002 17.89 6.22002 17.97 6.02002 17.97Z" fill="#FF7600"/>
<path opacity="0.4" d="M16 15.3C15.82 15.3 15.63 15.23 15.49 15.1C15.19 14.82 15.17 14.34 15.46 14.04C16.29 13.16 16.75 12 16.75 10.8C16.75 8.18005 14.62 6.06006 12.01 6.06006C9.40001 6.06006 7.27002 8.19005 7.27002 10.8C7.27002 12.01 7.73001 13.16 8.56001 14.04C8.84001 14.34 8.83001 14.82 8.53001 15.1C8.23001 15.39 7.75002 15.3701 7.47002 15.0701C6.38002 13.9101 5.77002 12.39 5.77002 10.8C5.77002 7.36005 8.57001 4.56006 12.01 4.56006C15.45 4.56006 18.25 7.36005 18.25 10.8C18.25 12.39 17.65 13.9101 16.55 15.0701C16.4 15.2201 16.2 15.3 16 15.3Z" fill="#FF7600"/>
<path d="M10.3 16.6598L8.86001 18.4498C7.72001 19.8798 8.73 21.9898 10.56 21.9898H13.43C15.26 21.9898 16.28 19.8698 15.13 18.4498L13.69 16.6598C12.83 15.5698 11.17 15.5698 10.3 16.6598Z" fill="#FF7600"/>
</svg>
