<svg width="24" height="24" viewBox="0 0 24 24" fill="none" xmlns="http://www.w3.org/2000/svg">
<path opacity="0.4" d="M2.76994 10C2.33994 10 1.99994 9.66 1.99994 9.23V6.92C1.99994 4.21 4.20994 2 6.91994 2H9.22994C9.65994 2 9.99994 2.34 9.99994 2.77C9.99994 3.2 9.65994 3.54 9.22994 3.54H6.91994C5.04994 3.54 3.53994 5.06 3.53994 6.92V9.23C3.53994 9.66 3.18994 10 2.76994 10Z" fill="#52006A"/>
<path opacity="0.4" d="M21.2299 10C20.8099 10 20.4599 9.66 20.4599 9.23V6.92C20.4599 5.05 18.9399 3.54 17.0799 3.54H14.7699C14.3399 3.54 13.9999 3.19 13.9999 2.77C13.9999 2.35 14.3399 2 14.7699 2H17.0799C19.7899 2 21.9999 4.21 21.9999 6.92V9.23C21.9999 9.66 21.6599 10 21.2299 10Z" fill="#52006A"/>
<path d="M17.0799 21.9999H15.6899C15.2699 21.9999 14.9199 21.6599 14.9199 21.2299C14.9199 20.8099 15.2599 20.4599 15.6899 20.4599H17.0799C18.9499 20.4599 20.4599 18.9399 20.4599 17.0799V15.6999C20.4599 15.2799 20.7999 14.9299 21.2299 14.9299C21.6499 14.9299 21.9999 15.2699 21.9999 15.6999V17.0799C21.9999 19.7899 19.7899 21.9999 17.0799 21.9999Z" fill="#52006A"/>
<path d="M9.22994 22H6.91994C4.20994 22 1.99994 19.79 1.99994 17.08V14.77C1.99994 14.34 2.33994 14 2.76994 14C3.19994 14 3.53994 14.34 3.53994 14.77V17.08C3.53994 18.95 5.05994 20.46 6.91994 20.46H9.22994C9.64994 20.46 9.99994 20.8 9.99994 21.23C9.99994 21.66 9.65994 22 9.22994 22Z" fill="#52006A"/>
<path d="M18.4599 11.23H17.0999H6.89994H5.53994C5.10994 11.23 4.76994 11.58 4.76994 12C4.76994 12.42 5.10994 12.77 5.53994 12.77H6.89994H17.0999H18.4599C18.8899 12.77 19.2299 12.42 19.2299 12C19.2299 11.58 18.8899 11.23 18.4599 11.23Z" fill="#52006A"/>
<path d="M6.89993 13.94V14.27C6.89993 15.93 8.23993 17.27 9.89993 17.27H14.0999C15.7599 17.27 17.0999 15.93 17.0999 14.27V13.94C17.0999 13.82 17.0099 13.73 16.8899 13.73H7.10993C6.98993 13.73 6.89993 13.82 6.89993 13.94Z" fill="#52006A"/>
<path opacity="0.4" d="M6.89993 10.06V9.72998C6.89993 8.06998 8.23993 6.72998 9.89993 6.72998H14.0999C15.7599 6.72998 17.0999 8.06998 17.0999 9.72998V10.06C17.0999 10.18 17.0099 10.27 16.8899 10.27H7.10993C6.98993 10.27 6.89993 10.18 6.89993 10.06Z" fill="#52006A"/>
</svg>
