<svg width="24" height="24" viewBox="0 0 24 24" fill="none" xmlns="http://www.w3.org/2000/svg">
<path opacity="0.4" d="M11.9999 17.3501C12.9002 17.3501 13.6299 16.6203 13.6299 15.7201C13.6299 14.8199 12.9002 14.0901 11.9999 14.0901C11.0997 14.0901 10.3699 14.8199 10.3699 15.7201C10.3699 16.6203 11.0997 17.3501 11.9999 17.3501Z" fill="#52006A"/>
<path d="M16.6499 9.43994H7.34994C3.24994 9.43994 1.99994 10.6899 1.99994 14.7899V16.6499C1.99994 20.7499 3.24994 21.9999 7.34994 21.9999H16.6499C20.7499 21.9999 21.9999 20.7499 21.9999 16.6499V14.7899C21.9999 10.6899 20.7499 9.43994 16.6499 9.43994ZM11.9999 18.7399C10.3299 18.7399 8.97994 17.3799 8.97994 15.7199C8.97994 14.0599 10.3299 12.6999 11.9999 12.6999C13.6699 12.6999 15.0199 14.0599 15.0199 15.7199C15.0199 17.3799 13.6699 18.7399 11.9999 18.7399Z" fill="#52006A"/>
<path opacity="0.4" d="M7.11994 9.45V8.28C7.11994 5.35 7.94994 3.4 11.9999 3.4C16.3299 3.4 16.8799 5.51 16.8799 7.35C16.8799 7.74 17.1899 8.05 17.5799 8.05C17.9699 8.05 18.2799 7.74 18.2799 7.35C18.2799 3.8 16.1699 2 11.9999 2C6.36994 2 5.71994 5.58 5.71994 8.28V9.53C6.13994 9.48 6.60994 9.45 7.11994 9.45Z" fill="#52006A"/>
</svg>
