<svg width="16" height="16" viewBox="0 0 16 16" fill="none" xmlns="http://www.w3.org/2000/svg">
<g clip-path="url(#clip0_656_35679)">
<path d="M6.80655 12C6.50233 12 6.2142 11.884 6.02958 11.684L3.53082 8.986C3.45356 8.90268 3.39716 8.80774 3.36484 8.70659C3.33252 8.60545 3.32491 8.50009 3.34244 8.39654C3.35998 8.29299 3.40232 8.19329 3.46704 8.10312C3.53176 8.01295 3.6176 7.93409 3.71964 7.87104C3.82165 7.80774 3.93794 7.7615 4.06185 7.73499C4.18576 7.70848 4.31486 7.70221 4.44174 7.71654C4.56862 7.73088 4.6908 7.76553 4.80126 7.81852C4.91172 7.87151 5.0083 7.9418 5.08546 8.02534L6.72962 9.79922L10.8634 4.37472C11.0005 4.19561 11.219 4.06826 11.4708 4.02058C11.7227 3.97291 11.9874 4.00881 12.2069 4.12041C12.6636 4.35243 12.8041 4.8439 12.5188 5.21765L7.63457 11.624C7.55119 11.7338 7.43627 11.8254 7.29978 11.8907C7.16328 11.956 7.00934 11.9932 6.85131 11.9989C6.83592 12 6.82193 12 6.80655 12Z" fill="white"/>
</g>
<defs>
<clipPath id="clip0_656_35679">
<rect width="9.92" height="8.32" fill="white" transform="translate(3.04004 3.84003)"/>
</clipPath>
</defs>
</svg>
