<svg width="16" height="16" viewBox="0 0 16 16" fill="none" xmlns="http://www.w3.org/2000/svg">
<path d="M9.31193 8.2513L12.2807 5.28255C12.4216 5.1419 12.5008 4.95105 12.501 4.75196C12.5012 4.55288 12.4223 4.36188 12.2816 4.22099C12.141 4.08009 11.9501 4.00084 11.751 4.00066C11.5519 4.00049 11.3609 4.0794 11.2201 4.22005L8.2513 7.1888L5.28255 4.22005C5.14165 4.07915 4.95056 4 4.7513 4C4.55204 4 4.36095 4.07915 4.22005 4.22005C4.07915 4.36095 4 4.55204 4 4.7513C4 4.95056 4.07915 5.14165 4.22005 5.28255L7.1888 8.2513L4.22005 11.2201C4.07915 11.3609 4 11.552 4 11.7513C4 11.9506 4.07915 12.1417 4.22005 12.2826C4.36095 12.4234 4.55204 12.5026 4.7513 12.5026C4.95056 12.5026 5.14165 12.4234 5.28255 12.2826L8.2513 9.3138L11.2201 12.2826C11.3609 12.4234 11.552 12.5026 11.7513 12.5026C11.9506 12.5026 12.1417 12.4234 12.2826 12.2826C12.4234 12.1417 12.5026 11.9506 12.5026 11.7513C12.5026 11.552 12.4234 11.3609 12.2826 11.2201L9.31193 8.2513Z" fill="#52006A"/>
</svg>
