<svg width="24" height="24" viewBox="0 0 24 24" fill="none" xmlns="http://www.w3.org/2000/svg">
<path opacity="0.4" d="M7.64994 20.9101C7.61994 20.9101 7.57994 20.9301 7.54994 20.9301C5.60994 19.9701 4.02994 18.3801 3.05994 16.4401C3.05994 16.4101 3.07994 16.3701 3.07994 16.3401C4.29994 16.7001 5.55994 16.9701 6.80994 17.1801C7.02994 18.4401 7.28994 19.6901 7.64994 20.9101Z" fill="#52006A"/>
<path opacity="0.4" d="M20.9399 16.4501C19.9499 18.4401 18.2999 20.0501 16.2899 21.0201C16.6699 19.7501 16.9899 18.4701 17.1999 17.1801C18.4599 16.9701 19.6999 16.7001 20.9199 16.3401C20.9099 16.3801 20.9399 16.4201 20.9399 16.4501Z" fill="#52006A"/>
<path opacity="0.4" d="M21.0199 7.70998C19.7599 7.32998 18.4899 7.01998 17.1999 6.79998C16.9899 5.50998 16.6799 4.22998 16.2899 2.97998C18.3599 3.96998 20.0299 5.63998 21.0199 7.70998Z" fill="#52006A"/>
<path opacity="0.4" d="M7.64994 3.09006C7.28994 4.31006 7.02994 5.55006 6.81994 6.81006C5.52994 7.01006 4.24994 7.33006 2.97994 7.71006C3.94994 5.70006 5.55994 4.05006 7.54994 3.06006C7.57994 3.06006 7.61994 3.09006 7.64994 3.09006Z" fill="#52006A"/>
<path d="M15.4899 6.59C13.1699 6.33 10.8299 6.33 8.50994 6.59C8.75994 5.22 9.07994 3.85 9.52994 2.53C9.54994 2.45 9.53994 2.39 9.54994 2.31C10.3399 2.12 11.1499 2 11.9999 2C12.8399 2 13.6599 2.12 14.4399 2.31C14.4499 2.39 14.4499 2.45 14.4699 2.53C14.9199 3.86 15.2399 5.22 15.4899 6.59Z" fill="#52006A"/>
<path d="M6.58994 15.49C5.20994 15.24 3.84994 14.92 2.52994 14.47C2.44994 14.45 2.38994 14.46 2.30994 14.45C2.11994 13.66 1.99994 12.85 1.99994 12C1.99994 11.16 2.11994 10.34 2.30994 9.56001C2.38994 9.55001 2.44994 9.55001 2.52994 9.53001C3.85994 9.09001 5.20994 8.76001 6.58994 8.51001C6.33994 10.83 6.33994 13.17 6.58994 15.49Z" fill="#52006A"/>
<path d="M21.9999 12C21.9999 12.85 21.8799 13.66 21.6899 14.45C21.6099 14.46 21.5499 14.45 21.4699 14.47C20.1399 14.91 18.7799 15.24 17.4099 15.49C17.6699 13.17 17.6699 10.83 17.4099 8.51001C18.7799 8.76001 20.1499 9.08001 21.4699 9.53001C21.5499 9.55001 21.6099 9.56001 21.6899 9.56001C21.8799 10.35 21.9999 11.16 21.9999 12Z" fill="#52006A"/>
<path d="M15.4899 17.4099C15.2399 18.7899 14.9199 20.1499 14.4699 21.4699C14.4499 21.5499 14.4499 21.6099 14.4399 21.6899C13.6599 21.8799 12.8399 21.9999 11.9999 21.9999C11.1499 21.9999 10.3399 21.8799 9.54994 21.6899C9.53994 21.6099 9.54994 21.5499 9.52994 21.4699C9.08994 20.1399 8.75994 18.7899 8.50994 17.4099C9.66994 17.5399 10.8299 17.6299 11.9999 17.6299C13.1699 17.6299 14.3399 17.5399 15.4899 17.4099Z" fill="#52006A"/>
<path d="M15.7633 15.7633C13.2622 16.0789 10.7377 16.0789 8.23661 15.7633C7.92105 13.2622 7.92105 10.7378 8.23661 8.23667C10.7377 7.92111 13.2622 7.92111 15.7633 8.23667C16.0788 10.7378 16.0788 13.2622 15.7633 15.7633Z" fill="#52006A"/>
</svg>
