<svg width="22" height="24" viewBox="0 0 22 24" fill="none" xmlns="http://www.w3.org/2000/svg">
<path d="M21.1211 20.4844V24H11.2774V20.4844C11.2774 19.3212 12.2236 18.375 13.3867 18.375H19.0117C20.1749 18.375 21.1211 19.3212 21.1211 20.4844Z" fill="white"/>
<path d="M16.1992 18.375C14.6459 18.375 13.3867 17.1158 13.3867 15.5625C13.3867 14.0092 14.6459 12.75 16.1992 12.75C17.7525 12.75 19.0117 14.0092 19.0117 15.5625C19.0117 17.1158 17.7525 18.375 16.1992 18.375Z" fill="white"/>
<path d="M9.87134 20.4844V24H0.0276137V20.4844C0.0276137 19.3212 0.97383 18.375 2.13698 18.375H7.76197C8.92512 18.375 9.87134 19.3212 9.87134 20.4844Z" fill="#9766A6"/>
<path d="M4.94898 18.375C3.39568 18.375 2.13649 17.1158 2.13649 15.5625C2.13649 14.0092 3.39568 12.75 4.94898 12.75C6.50228 12.75 7.76147 14.0092 7.76147 15.5625C7.76147 17.1158 6.50228 18.375 4.94898 18.375Z" fill="#9766A6"/>
<path d="M19.7148 4.21874C19.7148 6.54509 17.8225 8.43748 15.4961 8.43748V11.5981L11.7251 8.43748H9.42342L5.65238 11.5981V8.43748C3.32603 8.43748 1.43364 6.54509 1.43364 4.21874C1.43364 1.89239 3.32603 0 5.65238 0H15.4961C17.8225 0 19.7148 1.89239 19.7148 4.21874ZM8.46487 3.51562H7.05863V4.92186H8.46487V3.51562ZM11.2774 3.51562H9.87112V4.92186H11.2774V3.51562ZM14.0899 3.51562H12.6836V4.92186H14.0899V3.51562Z" fill="white"/>
</svg>
