<svg width="31" height="49" viewBox="0 0 31 49" fill="none" xmlns="http://www.w3.org/2000/svg">
<g clip-path="url(#clip0_638_37085)">
<path d="M13.8398 25.026H9.97833C9.65781 25.026 9.39854 25.2829 9.39854 25.6004V29.426C9.39854 29.7431 9.65781 30.0005 9.97833 30.0005H13.8397C14.1599 30.0005 14.4195 29.7431 14.4195 29.426V25.6004C14.4195 25.2829 14.1599 25.026 13.8397 25.026H13.8398ZM13.26 28.8516H10.5581V26.1749H13.2599L13.26 28.8516ZM20.8856 25.026H17.0245C16.7044 25.026 16.4447 25.2829 16.4447 25.6004V29.426C16.4447 29.7431 16.7044 30.0005 17.0245 30.0005H20.8856C21.2056 30.0005 21.4654 29.7431 21.4654 29.426V25.6004C21.4654 25.2829 21.2056 25.026 20.8856 25.026ZM20.3058 28.8516H17.6043V26.1749H20.3058V28.8516ZM7.37199 25.026H3.5107C3.19065 25.026 2.93091 25.2829 2.93091 25.6004V36.1206C2.93091 36.4377 3.19065 36.6951 3.5107 36.6951H7.3718C7.69223 36.6951 7.95159 36.4377 7.95159 36.1206V25.6003C7.95159 25.2829 7.69223 25.0259 7.3718 25.0259L7.37199 25.026ZM6.7922 35.5461H4.09048V26.1748H6.79201L6.7922 35.5461ZM13.8398 31.7205H9.97833C9.65781 31.7205 9.39854 31.9778 9.39854 32.295V36.1206C9.39854 36.4377 9.65781 36.6951 9.97833 36.6951H13.8397C14.1599 36.6951 14.4195 36.4377 14.4195 36.1206V32.295C14.4195 31.9778 14.1599 31.7205 13.8397 31.7205H13.8398ZM13.26 35.5461H10.5581V32.8694H13.2599L13.26 35.5461ZM7.37199 38.4155H3.5107C3.19065 38.4155 2.93091 38.6727 2.93091 38.9899V42.8155C2.93091 43.1326 3.19065 43.39 3.5107 43.39H7.3718C7.69223 43.39 7.95159 43.1326 7.95159 42.8155V38.9899C7.95159 38.6727 7.69223 38.4155 7.3718 38.4155H7.37199ZM6.7922 42.2411H4.09048V39.5644H6.79201L6.7922 42.2411ZM13.8398 38.4155H9.97833C9.65781 38.4155 9.39854 38.6727 9.39854 38.9899V42.8155C9.39854 43.1326 9.65781 43.39 9.97833 43.39H13.8397C14.1599 43.39 14.4195 43.1326 14.4195 42.8155V38.9899C14.4195 38.6727 14.1599 38.4155 13.8397 38.4155H13.8398ZM13.26 42.2411H10.5581V39.5644H13.2599L13.26 42.2411Z" fill="#52006A"/>
<path d="M24.7637 10.1341C24.8406 10.1354 24.9171 10.1215 24.9886 10.0932C25.0601 10.065 25.1251 10.0228 25.18 9.96937C25.2349 9.9159 25.2785 9.85213 25.3083 9.78179C25.338 9.71145 25.3533 9.63594 25.3533 9.55967V3.99949C25.3509 2.09133 23.79 0.545171 21.8642 0.542969H8.337C6.41877 0.545171 4.86397 2.08539 4.86175 3.98637V12.1148H1.5815C0.728054 12.1159 0.0361734 12.8011 0.0354004 13.6467V45.8745C0.0361734 46.7201 0.728054 47.4056 1.5815 47.4064H22.0084C22.1833 47.4946 22.36 47.5795 22.5411 47.6581L23.4576 48.0541C23.5304 48.0854 23.6089 48.1017 23.6883 48.1018C23.7677 48.102 23.8463 48.086 23.9192 48.0548L24.9512 47.6132C28.6667 46.0667 31.0839 42.4629 31.0839 38.4697V33.8793C31.084 33.775 31.0555 33.6727 31.0013 33.5833C30.9472 33.4939 30.8695 33.4208 30.7766 33.3718L24.3609 29.9844V13.6468C24.3601 12.8012 23.6683 12.116 22.8148 12.1149H19.5349V10.0516L24.7637 10.1341ZM24.1936 3.99949V8.97583L19.5353 8.90211V3.99958C19.5353 2.72495 20.578 1.6916 21.8643 1.6916C23.1507 1.6916 24.1935 2.72495 24.1935 3.99949H24.1936ZM6.02123 3.98637C6.02278 2.71969 7.05857 1.69304 8.337 1.6915H19.2692C18.6931 2.32448 18.3746 3.14677 18.3754 3.9991V20.7224H6.02123V3.98637ZM19.5349 16.1326H20.3058V20.7224H19.5349V16.1326ZM4.09054 20.7224V16.1326H4.86166V20.7224H4.09054ZM29.9244 38.47C29.9236 42.0019 27.7845 45.1889 24.4975 46.5558L24.4934 46.5577L23.6905 46.9009L23.0054 46.6051C19.7791 45.2079 17.693 42.0517 17.6892 38.5627V34.2195L23.7166 30.9463L29.9244 34.224V38.47ZM22.8148 13.2637C22.9173 13.2637 23.0156 13.304 23.0881 13.3759C23.1606 13.4477 23.2013 13.5451 23.2013 13.6467V29.916L16.8304 33.3755C16.7393 33.425 16.6633 33.4979 16.6104 33.5866C16.5575 33.6752 16.5296 33.7763 16.5296 33.8793V38.5631C16.5307 40.0373 16.8631 41.4927 17.5029 42.8236C18.1426 44.1545 19.0735 45.3275 20.228 46.2574H1.5815C1.36795 46.2574 1.19498 46.0861 1.19498 45.8745V13.6467C1.19498 13.5451 1.2357 13.4477 1.30819 13.3759C1.38068 13.304 1.47899 13.2637 1.5815 13.2637H4.86166V14.9837H3.51075C3.19071 14.9837 2.93096 15.2411 2.93096 15.5582V21.2968C2.93096 21.6139 3.19071 21.8713 3.51075 21.8713H20.8851C21.2052 21.8713 21.4649 21.6139 21.4649 21.2968V15.5582C21.4649 15.2411 21.2052 14.9837 20.8851 14.9837H19.5349V13.2637H22.8148Z" fill="#52006A"/>
<path d="M15.4468 7.38715H16.6487C16.9692 7.38715 17.2285 7.13027 17.2285 6.81269C17.2285 6.49558 16.9692 6.23823 16.6487 6.23823H15.4468C15.1264 6.23823 14.867 6.49558 14.867 6.81269C14.867 7.13027 15.1264 7.38715 15.4468 7.38715ZM7.56006 7.38715H13.3696C13.6898 7.38715 13.9494 7.13027 13.9494 6.81269C13.9494 6.49558 13.6898 6.23823 13.3696 6.23823H7.56026C7.24012 6.23823 6.98047 6.49558 6.98047 6.81269C6.98047 7.13027 7.24012 7.38715 7.56026 7.38715H7.56006ZM14.4813 18.8108H16.6487C16.9692 18.8108 17.2285 18.5536 17.2285 18.2364C17.2285 17.9189 16.9692 17.6619 16.6487 17.6619H14.4813C14.1612 17.6619 13.9015 17.9189 13.9015 18.2364C13.9015 18.5536 14.1612 18.8108 14.4813 18.8108ZM12.8737 17.6619H12.551C12.2308 17.6619 11.9712 17.9189 11.9712 18.2364C11.9712 18.5536 12.2308 18.8108 12.551 18.8108H12.8737C13.1942 18.8108 13.4535 18.5536 13.4535 18.2364C13.4535 17.9189 13.1942 17.6619 12.8737 17.6619ZM15.4468 4.51562H16.6487C16.9692 4.51562 17.2285 4.25874 17.2285 3.94116C17.2285 3.62406 16.9692 3.3667 16.6487 3.3667H15.4468C15.1264 3.3667 14.867 3.62406 14.867 3.94116C14.867 4.25874 15.1264 4.51562 15.4468 4.51562ZM7.56006 4.51562H13.3696C13.6898 4.51562 13.9494 4.25874 13.9494 3.94116C13.9494 3.62406 13.6898 3.3667 13.3696 3.3667H7.56026C7.24012 3.3667 6.98047 3.62406 6.98047 3.94116C6.98047 4.25874 7.24012 4.51562 7.56026 4.51562H7.56006ZM15.4468 10.2588H16.6487C16.9692 10.2588 17.2285 10.0018 17.2285 9.68431C17.2285 9.36711 16.9692 9.10985 16.6487 9.10985H15.4468C15.1264 9.10985 14.867 9.36711 14.867 9.68431C14.867 10.0018 15.1264 10.2588 15.4468 10.2588ZM7.56006 10.2588H13.3696C13.6898 10.2588 13.9494 10.0018 13.9494 9.68431C13.9494 9.36711 13.6898 9.10985 13.3696 9.10985H7.56026C7.24012 9.10985 6.98047 9.36711 6.98047 9.68431C6.98047 10.0018 7.24012 10.2588 7.56026 10.2588H7.56006ZM15.4468 13.1303H16.6487C16.9692 13.1303 17.2285 12.8733 17.2285 12.5558C17.2285 12.2386 16.9692 11.9814 16.6487 11.9814H15.4468C15.1264 11.9814 14.867 12.2386 14.867 12.5558C14.867 12.8733 15.1264 13.1303 15.4468 13.1303ZM7.56006 13.1303H13.3696C13.6898 13.1303 13.9494 12.8733 13.9494 12.5558C13.9494 12.2386 13.6898 11.9814 13.3696 11.9814H7.56026C7.24012 11.9814 6.98047 12.2386 6.98047 12.5558C6.98047 12.8733 7.24012 13.1303 7.56026 13.1303H7.56006ZM15.4468 16.0022H16.6487C16.9692 16.0022 17.2285 15.7448 17.2285 15.4277C17.2285 15.1102 16.9692 14.8533 16.6487 14.8533H15.4468C15.1264 14.8533 14.867 15.1102 14.867 15.4277C14.867 15.7448 15.1264 16.0022 15.4468 16.0022ZM7.56006 16.0022H13.3696C13.6898 16.0022 13.9494 15.7448 13.9494 15.4277C13.9494 15.1102 13.6898 14.8533 13.3696 14.8533H7.56026C7.24012 14.8533 6.98047 15.1102 6.98047 15.4277C6.98047 15.7448 7.24012 16.0022 7.56026 16.0022H7.56006ZM21.4041 38.1899C21.338 38.1127 21.2526 38.0541 21.1565 38.0201C21.0603 37.986 20.9568 37.9776 20.8563 37.9958C20.7559 38.0142 20.6622 38.0585 20.5846 38.1242C20.507 38.1899 20.4483 38.2748 20.4144 38.3702C20.3804 38.4656 20.3725 38.5681 20.3915 38.6675C20.4104 38.7669 20.4556 38.8595 20.5223 38.936L22.308 41.0084C22.4064 41.1224 22.5459 41.1938 22.6967 41.2074C22.8475 41.2209 22.9976 41.1755 23.1151 41.0809L27.2744 37.728C27.335 37.6808 27.3855 37.6222 27.4229 37.5556C27.4604 37.4889 27.4841 37.4156 27.4926 37.3397C27.5011 37.2639 27.4944 37.1872 27.4726 37.114C27.4509 37.0408 27.4147 36.9726 27.3661 36.9134C27.3175 36.8542 27.2575 36.8052 27.1896 36.7693C27.1217 36.7333 27.0472 36.7111 26.9705 36.704C26.8939 36.6969 26.8165 36.7049 26.743 36.7277C26.6696 36.7505 26.6014 36.7876 26.5425 36.8368L22.8222 39.8358L21.4041 38.1899Z" fill="#52006A"/>
</g>
<defs>
<clipPath id="clip0_638_37085">
<rect width="31" height="47.5588" fill="white" transform="translate(0 0.542969)"/>
</clipPath>
</defs>
</svg>
