<svg width="36" height="49" viewBox="0 0 36 49" fill="none" xmlns="http://www.w3.org/2000/svg">
<path d="M35.707 10.9215L25.707 1.01342C25.5195 0.827644 25.2656 0.723145 24.9999 0.723145H3.99994C1.79494 0.723145 0 2.50056 0 4.68641V44.3187C0 46.5045 1.79494 48.2819 4.00003 48.2819H32.0001C34.2051 48.2819 36 46.5045 36 44.3187V11.622C36 11.3588 35.8945 11.1073 35.707 10.9215ZM26 4.10586L32.5859 10.6313H27.9999C26.8964 10.6313 26 9.74203 26 8.64967V4.10586ZM34 44.3187C34 45.411 33.1035 46.3002 32.0001 46.3002H4.00003C2.8965 46.3002 2.00006 45.411 2.00006 44.3187V4.68641C2.00006 3.59404 2.89659 2.70482 4.00003 2.70482H24V8.64967C24 10.8354 25.7949 12.6128 28 12.6128H34V44.3187Z" fill="#52006A"/>
<path d="M29 28.4658H7.00003C6.86868 28.4658 6.7386 28.4913 6.61723 28.5411C6.49587 28.5909 6.38559 28.6638 6.29271 28.7559C6.19983 28.8479 6.12617 28.9571 6.07595 29.0774C6.02572 29.1977 5.99991 29.3265 6 29.4567C5.99991 29.5868 6.02572 29.7157 6.07595 29.836C6.12617 29.9562 6.19983 30.0655 6.29271 30.1575C6.38559 30.2495 6.49587 30.3225 6.61723 30.3723C6.7386 30.422 6.86868 30.4476 7.00003 30.4475H29.0001C29.1314 30.4476 29.2615 30.422 29.3829 30.3723C29.5042 30.3225 29.6145 30.2495 29.7074 30.1575C29.8003 30.0655 29.8739 29.9562 29.9241 29.836C29.9744 29.7157 30.0002 29.5868 30.0001 29.4567C30.0002 29.3265 29.9743 29.1977 29.9241 29.0774C29.8738 28.9572 29.8002 28.8479 29.7073 28.7559C29.6144 28.6639 29.5041 28.5909 29.3828 28.5411C29.2614 28.4913 29.1313 28.4658 29 28.4658ZM29 22.521H7.00003C6.86868 22.5209 6.7386 22.5465 6.61723 22.5962C6.49587 22.646 6.38559 22.719 6.29271 22.811C6.19983 22.903 6.12617 23.0123 6.07595 23.1326C6.02572 23.2528 5.99991 23.3817 6 23.5118C5.99991 23.642 6.02572 23.7709 6.07595 23.8911C6.12617 24.0114 6.19983 24.1206 6.29271 24.2127C6.38559 24.3047 6.49587 24.3777 6.61723 24.4274C6.7386 24.4772 6.86868 24.5028 7.00003 24.5027H29.0001C29.1314 24.5028 29.2615 24.4772 29.3829 24.4274C29.5042 24.3777 29.6145 24.3047 29.7074 24.2127C29.8003 24.1206 29.8739 24.0114 29.9241 23.8911C29.9744 23.7709 30.0002 23.642 30.0001 23.5118C30.0002 23.3817 29.9743 23.2528 29.9241 23.1326C29.8738 23.0123 29.8002 22.9031 29.7073 22.811C29.6144 22.719 29.5041 22.646 29.3828 22.5963C29.2614 22.5465 29.1313 22.5209 29 22.521ZM29 34.4107H7.00003C6.86868 34.4106 6.7386 34.4362 6.61723 34.4859C6.49587 34.5357 6.38559 34.6087 6.29271 34.7007C6.19983 34.7927 6.12617 34.902 6.07595 35.0223C6.02572 35.1425 5.99991 35.2714 6 35.4015C5.99991 35.5317 6.02572 35.6606 6.07595 35.7808C6.12617 35.9011 6.19983 36.0103 6.29271 36.1023C6.38559 36.1944 6.49587 36.2674 6.61723 36.3171C6.7386 36.3669 6.86868 36.3925 7.00003 36.3924H29.0001C29.1314 36.3925 29.2615 36.3669 29.3829 36.3171C29.5042 36.2674 29.6145 36.1944 29.7074 36.1023C29.8003 36.0103 29.8739 35.9011 29.9241 35.7808C29.9744 35.6606 30.0002 35.5317 30.0001 35.4015C30.0002 35.2714 29.9743 35.1425 29.9241 35.0223C29.8738 34.902 29.8002 34.7928 29.7073 34.7007C29.6144 34.6087 29.5041 34.5357 29.3828 34.486C29.2614 34.4362 29.1313 34.4106 29 34.4107ZM19 40.3555H7.00003C6.86868 40.3555 6.7386 40.381 6.61723 40.4308C6.49587 40.4806 6.38559 40.5535 6.29271 40.6456C6.19983 40.7376 6.12617 40.8468 6.07595 40.9671C6.02572 41.0873 5.99991 41.2162 6 41.3464C5.99991 41.4765 6.02572 41.6054 6.07595 41.7257C6.12617 41.8459 6.19983 41.9552 6.29271 42.0472C6.38559 42.1392 6.49587 42.2122 6.61723 42.262C6.7386 42.3117 6.86868 42.3373 7.00003 42.3372H19C19.1314 42.3373 19.2615 42.3117 19.3828 42.262C19.5042 42.2122 19.6145 42.1392 19.7074 42.0472C19.8002 41.9552 19.8739 41.8459 19.9241 41.7257C19.9743 41.6054 20.0001 41.4765 20.0001 41.3464C20.0001 41.2162 19.9743 41.0874 19.9241 40.9671C19.8738 40.8469 19.8002 40.7376 19.7073 40.6456C19.6144 40.5536 19.5042 40.4806 19.3828 40.4308C19.2614 40.3811 19.1314 40.3555 19 40.3555ZM16 17.5669C15.9999 17.697 16.0258 17.8259 16.076 17.9462C16.1262 18.0664 16.1999 18.1757 16.2927 18.2677C16.3856 18.3597 16.4959 18.4327 16.6173 18.4825C16.7386 18.5322 16.8687 18.5578 17.0001 18.5577H29.0001C29.1314 18.5578 29.2615 18.5322 29.3829 18.4825C29.5042 18.4327 29.6145 18.3597 29.7074 18.2677C29.8003 18.1757 29.8739 18.0664 29.9241 17.9462C29.9744 17.8259 30.0002 17.697 30.0001 17.5669C30.0002 17.4368 29.9744 17.3079 29.9241 17.1876C29.8739 17.0674 29.8003 16.9581 29.7074 16.8661C29.6145 16.774 29.5042 16.7011 29.3829 16.6513C29.2615 16.6015 29.1314 16.576 29.0001 16.5761H17.0001C16.8687 16.576 16.7387 16.6016 16.6173 16.6514C16.4959 16.7011 16.3857 16.7741 16.2928 16.8661C16.1999 16.9581 16.1263 17.0674 16.076 17.1876C16.0258 17.3079 16 17.4368 16 17.5669ZM9 16.5761H7.00003C6.86868 16.5761 6.7386 16.6016 6.61723 16.6514C6.49587 16.7012 6.38559 16.7741 6.29271 16.8662C6.19983 16.9582 6.12617 17.0675 6.07595 17.1877C6.02572 17.308 5.99991 17.4368 6 17.567C5.99991 17.6971 6.02572 17.826 6.07595 17.9463C6.12617 18.0665 6.19983 18.1758 6.29271 18.2678C6.38559 18.3598 6.49587 18.4328 6.61723 18.4826C6.7386 18.5323 6.86868 18.5579 7.00003 18.5578H8.00006C8.00006 19.1055 8.44734 19.5487 9.00009 19.5487C9.55284 19.5487 10.0001 19.1055 10.0001 18.5578V18.3753C11.1615 17.9648 12 16.8753 12 15.5853C12 13.9462 10.6543 12.6129 9 12.6129C8.44922 12.6129 7.99997 12.1688 7.99997 11.622C7.99997 11.0754 8.44922 10.6312 9 10.6312H11C11.5527 10.6312 12 10.188 12 9.64037C12 9.0927 11.5527 8.64953 11 8.64953H9.99994C9.99994 8.10186 9.55266 7.65869 8.99991 7.65869C8.44716 7.65869 7.99988 8.10186 7.99988 8.64953V8.83206C6.8385 9.24253 6 10.332 6 11.622C6 13.2612 7.34569 14.5945 9 14.5945C9.55078 14.5945 10 15.0386 10 15.5853C10 16.132 9.55078 16.5761 9 16.5761Z" fill="#52006A"/>
</svg>
