<svg width="48" height="49" viewBox="0 0 48 49" fill="none" xmlns="http://www.w3.org/2000/svg">
<g clip-path="url(#clip0_638_37095)">
<path d="M36.0353 44.5366C35.943 44.5253 35.8493 44.5321 35.7597 44.5566C35.6701 44.5811 35.5862 44.6229 35.5128 44.6796C35.4395 44.7363 35.3782 44.8067 35.3323 44.8869C35.2865 44.967 35.257 45.0553 35.2456 45.1468C35.1417 45.9797 34.4238 46.6077 33.5746 46.6077H5.81307C4.88457 46.6077 4.12885 45.86 4.12885 44.939V16.5221L7.98188 29.1082C8.02592 29.2522 8.11551 29.3785 8.23744 29.4683C8.35938 29.5581 8.5072 29.6067 8.65913 29.607C8.7271 29.607 8.79704 29.5967 8.86501 29.5761C9.24001 29.4638 9.4516 29.0717 9.33732 28.701L5.80266 17.1538C6.28445 18.3415 7.45951 19.1829 8.83004 19.1829C10.6285 19.1829 12.0926 17.7322 12.0926 15.9503V7.88738C16.8132 6.46786 22.4824 4.76494 27.7351 3.18631C27.9149 3.13202 28.0655 3.00929 28.1541 2.84506C28.2426 2.68083 28.2618 2.4885 28.2074 2.31028C28.0931 1.93965 27.6973 1.73 27.3233 1.84231L14.217 5.78151C13.4604 4.31211 11.9179 3.30418 10.1411 3.30418C7.61907 3.30418 5.56745 5.33695 5.56745 7.83583V8.38145L4.93454 8.57141C3.61782 8.96646 2.73366 10.1476 2.73366 11.5103L2.71191 12.3414V44.9391C2.71191 46.634 4.10326 48.0117 5.81298 48.0117H33.5745C35.1378 48.0117 36.4602 46.8539 36.6519 45.319C36.7004 44.9344 36.4236 44.5834 36.0353 44.5366ZM6.98448 7.83592C6.98448 6.11108 8.40038 4.70809 10.1413 4.70809C11.2767 4.70809 12.2742 5.30518 12.8296 6.19904L11.6073 6.56595C10.4839 5.28558 8.34976 5.92186 8.13779 7.60853C8.11285 7.80211 8.12157 14.559 8.12176 14.8179C8.12176 15.2053 8.4391 15.5198 8.83023 15.5198C9.22135 15.5198 9.5387 15.2054 9.5387 14.8179V7.85375C9.5387 7.54304 9.7937 7.29029 10.1074 7.29029C10.4211 7.29029 10.6761 7.54295 10.6761 7.85375V15.9503C10.6761 16.9582 9.8477 17.779 8.83032 17.779C7.81295 17.779 6.98457 16.9583 6.98457 15.9503L6.98448 7.83592ZM4.64373 10.3357C4.64466 10.3339 4.6456 10.3329 4.64654 10.3339C4.71113 10.2901 5.02229 9.96965 5.56754 9.89302C5.59051 16.201 5.5157 16.0344 5.63551 16.6082L4.22345 11.996C4.0366 11.379 4.22241 10.7558 4.64373 10.3357Z" fill="#FF7600"/>
<path d="M35.3685 2.63524C34.8567 0.963998 33.0993 0.102367 31.5013 0.587522L30.0354 1.02744C29.8556 1.08173 29.7049 1.20446 29.6164 1.36869C29.5278 1.53292 29.5087 1.72525 29.563 1.90347C29.6176 2.08152 29.7413 2.23082 29.9069 2.31857C30.0725 2.40632 30.2665 2.42534 30.4463 2.37144C31.8355 1.9736 31.9881 1.8586 32.4025 1.8586C33.1365 1.8586 33.7996 2.34525 34.0131 3.04349L36.0487 9.6941L36.6759 11.7419L43.7962 35.0011C44.0744 35.9025 43.5354 36.8237 42.674 37.0826C14.2958 45.6112 15.9981 45.1389 15.618 45.1389C14.8831 45.1389 14.221 44.6522 14.0075 43.954L10.1602 31.3875C10.1056 31.2094 9.98193 31.0601 9.81631 30.9724C9.6507 30.8846 9.45671 30.8656 9.27695 30.9195C9.09714 30.9737 8.94639 31.0964 8.85783 31.2607C8.76927 31.425 8.75014 31.6173 8.80464 31.7956L12.651 44.362C13.0506 45.6666 14.2426 46.5427 15.618 46.5427C15.9233 46.5424 16.227 46.4976 16.5191 46.4098L35.2589 40.7775V42.4265C35.2589 42.5187 35.2772 42.61 35.3127 42.6952C35.3483 42.7804 35.4005 42.8578 35.4663 42.923C35.5321 42.9882 35.6102 43.0399 35.6962 43.0751C35.7822 43.1104 35.8743 43.1285 35.9674 43.1285C36.1553 43.1284 36.3354 43.0544 36.4683 42.9228C36.6011 42.7912 36.6758 42.6127 36.6759 42.4265V40.3516L43.0849 38.4254C44.4016 38.0296 45.2867 36.8485 45.2867 35.4867C45.2867 34.6325 45.6361 36.3319 35.3685 2.63524Z" fill="#FF7600"/>
<path d="M24.1907 17.5242C23.5918 15.5679 22.0078 15.4744 21.0615 15.4188C20.207 15.3567 19.6131 15.3957 19.4197 14.7637C19.234 14.157 19.6652 13.8433 20.2788 13.6588C21.1763 13.3891 21.4884 13.7406 21.9196 13.6109C22.4268 13.4585 22.5506 12.862 22.4421 12.508C22.2114 11.7543 21.0514 11.8319 20.43 11.9322L20.3437 11.65C20.2016 11.1857 19.7047 10.9225 19.236 11.0634C18.7674 11.2042 18.5018 11.6965 18.644 12.1609L18.7627 12.5485C17.7734 13.193 17.4236 14.1718 17.7775 15.3276C18.2872 16.9925 19.6265 17.0788 20.7026 17.1481C21.7761 17.2172 22.3029 17.2859 22.5485 18.0882C22.7597 18.7782 22.4959 19.2084 21.7183 19.4421C20.4655 19.8185 20.2773 18.9027 19.5941 19.108C19.1442 19.2432 18.9379 19.8137 19.0605 20.2143C19.2617 20.8716 20.2868 21.2872 21.4095 21.1949L21.4952 21.4746C21.6373 21.939 22.1342 22.2021 22.603 22.0612C23.0716 21.9204 23.3372 21.4281 23.195 20.9637L23.1037 20.6653C24.2084 20.0081 24.6046 18.8763 24.1907 17.5242ZM35.0759 21.2081C35.0213 21.0299 34.8976 20.8806 34.7319 20.7928C34.5662 20.7051 34.3721 20.6861 34.1923 20.7401L13.9969 26.8097C13.8182 26.8646 13.6686 26.9874 13.5809 27.1511C13.4932 27.3149 13.4745 27.5065 13.5288 27.6839C13.5831 27.8613 13.7061 28.0102 13.8708 28.0982C14.0356 28.1861 14.2288 28.2058 14.4082 28.1531L34.6036 22.0835C34.7834 22.0295 34.9342 21.9069 35.0228 21.7427C35.1113 21.5785 35.1305 21.3862 35.0759 21.2081ZM36.2556 25.0596C36.1412 24.6889 35.7454 24.4793 35.3714 24.5916L35.259 24.6253L15.1761 30.661C14.9963 30.7153 14.8456 30.838 14.7571 31.0023C14.6686 31.1665 14.6494 31.3588 14.7038 31.537C14.8178 31.9092 15.2155 32.1163 15.5879 32.005L35.7833 25.9356C36.1573 25.8223 36.3689 25.4302 36.2556 25.0596ZM37.4344 28.9108C37.3797 28.7328 37.256 28.5836 37.0904 28.4959C36.9249 28.4082 36.7309 28.3891 36.5512 28.4428L35.259 28.8312L16.3549 34.5131C15.5786 34.7461 15.7504 35.887 16.5608 35.887C16.6287 35.887 16.6977 35.8767 16.7666 35.8562L36.962 29.7867C37.3361 29.6745 37.5477 29.2824 37.4344 28.9108ZM38.6133 32.7631C38.5587 32.585 38.4351 32.4357 38.2694 32.348C38.1038 32.2602 37.9098 32.2412 37.7301 32.2951L36.676 32.6124L17.5366 38.364L17.5361 38.364L17.5364 38.364L17.5348 38.3644L17.5351 38.3643L17.5347 38.3644C16.7569 38.5975 16.9308 39.7384 17.7397 39.7384C17.8992 39.7384 16.7123 40.0822 38.141 33.6382C38.516 33.5258 38.7276 33.1336 38.6133 32.7631Z" fill="#FF7600"/>
</g>
<defs>
<clipPath id="clip0_638_37095">
<rect width="48" height="47.5588" fill="white" transform="translate(0 0.453125)"/>
</clipPath>
</defs>
</svg>
