<svg width="16" height="16" viewBox="0 0 16 16" fill="none" xmlns="http://www.w3.org/2000/svg">
<g clip-path="url(#clip0_656_35797)">
<path d="M6.80667 12C6.50245 12 6.21432 11.884 6.0297 11.684L3.53094 8.986C3.45368 8.90268 3.39728 8.80774 3.36496 8.70659C3.33264 8.60545 3.32503 8.50009 3.34256 8.39654C3.3601 8.29299 3.40244 8.19329 3.46716 8.10312C3.53188 8.01295 3.61772 7.93409 3.71976 7.87104C3.82177 7.80774 3.93806 7.7615 4.06197 7.73499C4.18588 7.70848 4.31498 7.70221 4.44186 7.71654C4.56875 7.73088 4.69092 7.76553 4.80138 7.81852C4.91184 7.87151 5.00842 7.9418 5.08558 8.02534L6.72974 9.79922L10.8636 4.37472C11.0007 4.19561 11.2191 4.06826 11.4709 4.02058C11.7228 3.97291 11.9875 4.00881 12.207 4.12041C12.6637 4.35243 12.8042 4.8439 12.5189 5.21765L7.63469 11.624C7.55132 11.7338 7.43639 11.8254 7.2999 11.8907C7.1634 11.956 7.00946 11.9932 6.85143 11.9989C6.83604 12 6.82205 12 6.80667 12Z" fill="#52006A"/>
</g>
<defs>
<clipPath id="clip0_656_35797">
<rect width="9.92" height="8.32" fill="white" transform="translate(3.04004 3.84003)"/>
</clipPath>
</defs>
</svg>
