<svg width="10" height="10" viewBox="0 0 10 10" fill="none" xmlns="http://www.w3.org/2000/svg">
<path d="M6.06071 4.99996L9.02946 2.03121C9.17035 1.89056 9.24961 1.6997 9.24978 1.50062C9.24996 1.30154 9.17104 1.11054 9.03039 0.969646C8.88974 0.828749 8.69889 0.749496 8.49981 0.74932C8.30072 0.749144 8.10973 0.828061 7.96883 0.968708L5.00008 3.93746L2.03133 0.968708C1.89043 0.827812 1.69934 0.748657 1.50008 0.748657C1.30082 0.748657 1.10973 0.827812 0.96883 0.968708C0.827934 1.1096 0.748779 1.3007 0.748779 1.49996C0.748779 1.69922 0.827934 1.89031 0.96883 2.03121L3.93758 4.99996L0.96883 7.96871C0.827934 8.1096 0.748779 8.3007 0.748779 8.49996C0.748779 8.69922 0.827934 8.89031 0.96883 9.03121C1.10973 9.1721 1.30082 9.25126 1.50008 9.25126C1.69934 9.25126 1.89043 9.1721 2.03133 9.03121L5.00008 6.06246L7.96883 9.03121C8.10973 9.1721 8.30082 9.25126 8.50008 9.25126C8.69934 9.25126 8.89043 9.1721 9.03133 9.03121C9.17223 8.89031 9.25138 8.69922 9.25138 8.49996C9.25138 8.3007 9.17223 8.1096 9.03133 7.96871L6.06071 4.99996Z" fill="white"/>
</svg>
