<svg width="48" height="48" viewBox="0 0 48 48" fill="none" xmlns="http://www.w3.org/2000/svg">
<path d="M37.4255 17.6568C37.2384 17.6568 37.0589 17.7305 36.9267 17.8616C36.7944 17.9926 36.72 18.1704 36.72 18.3558V44.7509H4.69094V41.7533C4.69094 41.5679 4.61661 41.3901 4.48432 41.259C4.35202 41.1279 4.17258 41.0543 3.98548 41.0543C3.79839 41.0543 3.61895 41.1279 3.48665 41.259C3.35435 41.3901 3.28003 41.5679 3.28003 41.7533V45.4427C3.28003 45.8246 3.59276 46.1416 3.98548 46.1416H37.4255C37.8109 46.1416 38.1309 45.8318 38.1309 45.4427V18.3558C38.1309 17.9667 37.8182 17.6568 37.4255 17.6568ZM40.72 2.14258H7.28003C5.07639 2.14258 3.2873 3.91522 3.2873 6.0986V38.9574C3.2873 39.1428 3.36163 39.3206 3.49392 39.4516C3.62622 39.5827 3.80566 39.6564 3.99276 39.6564C4.17985 39.6564 4.35929 39.5827 4.49159 39.4516C4.62389 39.3206 4.69821 39.1428 4.69821 38.9574V6.10581C4.69821 4.69346 5.86185 3.54052 7.2873 3.54052H37.6873C37.0639 4.25194 36.7227 5.16365 36.7273 6.10581V15.0771C36.7273 15.2625 36.8016 15.4403 36.9339 15.5714C37.0662 15.7025 37.2457 15.7761 37.4328 15.7761C37.6199 15.7761 37.7993 15.7025 37.9316 15.5714C38.0639 15.4403 38.1382 15.2625 38.1382 15.0771V12.4974H44.0218C44.4073 12.4974 44.7273 12.1876 44.7273 11.7985V6.10581C44.72 3.92243 42.9237 2.14258 40.72 2.14258ZM43.3091 11.0995H38.1309V6.10581C38.1309 5.42125 38.4 4.77993 38.8873 4.28993C39.3746 3.79993 40.0291 3.54052 40.72 3.54052C42.1455 3.54052 43.3091 4.69346 43.3091 6.10581V11.0995Z" fill="#FF7600"/>
<path d="M17.1346 17.5272H10.3855C10.1984 17.5272 10.019 17.6009 9.88672 17.732C9.75442 17.8631 9.68009 18.0408 9.68009 18.2262V24.0269H7.891C7.7039 24.0269 7.52447 24.1006 7.39217 24.2317C7.25987 24.3628 7.18555 24.5405 7.18555 24.7259V28.9486C7.18555 29.3305 7.49827 29.6475 7.891 29.6475H9.68736L9.76737 37.8046C9.77464 38.1865 10.0874 38.4963 10.4728 38.4963H14.6474V40.024C14.6474 40.4059 14.9601 40.723 15.3528 40.723H25.9928C26.3783 40.723 26.6983 40.4131 26.6983 40.024V38.4963H31.0546C31.4401 38.4963 31.7601 38.1865 31.7601 37.7974V29.6475H33.6365C34.0219 29.6475 34.3419 29.3377 34.3419 28.9486V24.7259C34.3419 24.5405 34.2676 24.3628 34.1353 24.2317C34.003 24.1006 33.8236 24.0269 33.6365 24.0269H31.7601V18.2262C31.7601 18.0408 31.6858 17.8631 31.5535 17.732C31.4212 17.6009 31.2417 17.5272 31.0546 17.5272H24.211C24.07 16.8342 23.7256 16.1978 23.221 15.6978C22.7164 15.1979 22.0741 14.8567 21.3746 14.717V12.3895H29.1128C29.4983 12.3895 29.8183 12.0796 29.8183 11.6905V8.26049C29.8183 8.07512 29.7439 7.89733 29.6117 7.76625C29.4794 7.63516 29.2999 7.56152 29.1128 7.56152H13.0474C12.8603 7.56152 12.6808 7.63516 12.5485 7.76625C12.4162 7.89733 12.3419 8.07512 12.3419 8.26049V11.6905C12.3419 12.0724 12.6546 12.3895 13.0474 12.3895H19.9637V14.717C18.5383 15.0052 17.4183 16.1149 17.1346 17.5272ZM13.7528 8.96667H28.4146V10.9987H13.7528V8.96667ZM8.58918 25.4249H12.3419V28.2496H8.58918V25.4249ZM11.1637 37.0984L11.091 29.6475H13.0474C13.4328 29.6475 13.7528 29.3377 13.7528 28.9486V24.7259C13.7528 24.5405 13.6785 24.3628 13.5462 24.2317C13.4139 24.1006 13.2345 24.0269 13.0474 24.0269H11.0837V18.918H17.1346C17.2757 19.6111 17.62 20.2475 18.1246 20.7474C18.6292 21.2473 19.2715 21.5886 19.971 21.7283V24.3512L17.2655 25.9005C17.0474 26.023 16.9165 26.2536 16.9165 26.5058V30.0006C16.9165 30.2528 17.0474 30.4834 17.2655 30.6059L19.971 32.1552V34.879H15.3528C15.1657 34.879 14.9863 34.9526 14.854 35.0837C14.7217 35.2148 14.6474 35.3926 14.6474 35.578V37.1056H11.1637V37.0984ZM20.6692 30.9446L18.3201 29.5971V26.9093L20.6692 25.5618L23.0183 26.9093V29.5971L20.6692 30.9446ZM25.2874 39.3178H16.051V36.2697H25.2874V39.3178ZM32.931 28.2496H29.1783V25.4249H32.931V28.2496ZM30.3492 24.0342H28.4728C28.2857 24.0342 28.1063 24.1078 27.974 24.2389C27.8417 24.37 27.7674 24.5477 27.7674 24.7331V28.9558C27.7674 29.3377 28.0801 29.6547 28.4728 29.6547H30.3492V37.1056H26.691V35.578C26.691 35.3926 26.6167 35.2148 26.4844 35.0837C26.3521 34.9526 26.1726 34.879 25.9855 34.879H21.3674V32.1552L24.0728 30.6059C24.291 30.4834 24.4219 30.2528 24.4219 30.0006V26.5058C24.4219 26.2536 24.291 26.023 24.0728 25.9005L21.3674 24.3512V21.7283C22.0669 21.5886 22.7092 21.2473 23.2138 20.7474C23.7183 20.2475 24.0627 19.6111 24.2037 18.918H30.3492V24.0342ZM22.8728 18.2262C22.8728 19.4296 21.8837 20.4096 20.6692 20.4096C19.4546 20.4096 18.4655 19.4296 18.4655 18.2262C18.4655 17.0228 19.4546 16.0428 20.6692 16.0428C21.8837 16.0428 22.8728 17.0228 22.8728 18.2262Z" fill="#FF7600"/>
</svg>
