<svg width="48" height="49" viewBox="0 0 48 49" fill="none" xmlns="http://www.w3.org/2000/svg">
<path d="M12.5352 29.766H9.20337C9.00446 29.766 8.81369 29.6877 8.67304 29.5483C8.53239 29.409 8.45337 29.22 8.45337 29.0229V20.3936C8.45337 20.1965 8.53239 20.0075 8.67304 19.8681C8.81369 19.7287 9.00446 19.6505 9.20337 19.6505H12.5352C12.7342 19.6505 12.9249 19.7287 13.0656 19.8681C13.2062 20.0075 13.2852 20.1965 13.2852 20.3936V29.0229C13.2852 29.22 13.2062 29.409 13.0656 29.5483C12.9249 29.6877 12.7342 29.766 12.5352 29.766ZM9.95337 28.2798H11.7852V21.1367H9.95337V28.2798ZM19.4399 29.766H16.1081C15.9091 29.766 15.7184 29.6877 15.5777 29.5483C15.4371 29.409 15.3581 29.22 15.3581 29.0229V22.3015C15.3581 22.1044 15.4371 21.9154 15.5777 21.776C15.7184 21.6367 15.9091 21.5584 16.1081 21.5584H19.4399C19.6388 21.5584 19.8296 21.6367 19.9703 21.776C20.1109 21.9154 20.1899 22.1044 20.1899 22.3015V29.0229C20.1899 29.22 20.1109 29.409 19.9703 29.5483C19.8296 29.6877 19.6388 29.766 19.4399 29.766ZM16.8581 28.2798H18.6899V23.0446H16.8581V28.2798ZM26.3437 29.766H23.0137C22.8148 29.766 22.624 29.6877 22.4834 29.5483C22.3427 29.409 22.2637 29.22 22.2637 29.0229V17.4694C22.2637 17.2724 22.3427 17.0833 22.4834 16.944C22.624 16.8046 22.8148 16.7263 23.0137 16.7263H26.3437C26.5426 16.7263 26.7334 16.8046 26.874 16.944C27.0147 17.0833 27.0937 17.2724 27.0937 17.4694V29.0229C27.0937 29.22 27.0147 29.409 26.874 29.5483C26.7334 29.6877 26.5426 29.766 26.3437 29.766ZM23.7618 28.2798H25.5937V18.2125H23.7637L23.7618 28.2798ZM33.2502 29.766H29.9193C29.7204 29.766 29.5296 29.6877 29.389 29.5483C29.2483 29.409 29.1693 29.22 29.1693 29.0229V18.9454C29.1693 18.7483 29.2483 18.5593 29.389 18.42C29.5296 18.2806 29.7204 18.2023 29.9193 18.2023H33.2502C33.4492 18.2023 33.6399 18.2806 33.7806 18.42C33.9212 18.5593 34.0002 18.7483 34.0002 18.9454V29.0229C34.0002 29.22 33.9212 29.409 33.7806 29.5483C33.6399 29.6877 33.4492 29.766 33.2502 29.766ZM30.6693 28.2798H32.5002V19.6885H30.6693V28.2798ZM36.7499 29.766C36.551 29.766 36.3603 29.6877 36.2196 29.5483C36.079 29.409 35.9999 29.22 35.9999 29.0229V7.06781C35.9999 6.87073 36.079 6.68172 36.2196 6.54236C36.3603 6.403 36.551 6.32471 36.7499 6.32471C36.9488 6.32471 37.1396 6.403 37.2803 6.54236C37.4209 6.68172 37.4999 6.87073 37.4999 7.06781V29.0229C37.4999 29.22 37.4209 29.409 37.2803 29.5483C37.1396 29.6877 36.9488 29.766 36.7499 29.766Z" fill="#FF7600"/>
<path d="M38.7967 7.81092H36.7501C36.5512 7.81092 36.3604 7.73263 36.2198 7.59327C36.0791 7.45391 36.0001 7.2649 36.0001 7.06781C36.0001 6.87073 36.0791 6.68172 36.2198 6.54236C36.3604 6.403 36.5512 6.32471 36.7501 6.32471H38.8004C38.9993 6.32471 39.1901 6.403 39.3307 6.54236C39.4714 6.68172 39.5504 6.87073 39.5504 7.06781C39.5504 7.2649 39.4714 7.45391 39.3307 7.59327C39.1901 7.73263 38.9993 7.81092 38.8004 7.81092H38.7967ZM38.7967 11.7113H36.7501C36.5512 11.7113 36.3604 11.633 36.2198 11.4936C36.0791 11.3543 36.0001 11.1653 36.0001 10.9682C36.0001 10.7711 36.0791 10.5821 36.2198 10.4427C36.3604 10.3034 36.5512 10.2251 36.7501 10.2251H38.8004C38.9993 10.2251 39.1901 10.3034 39.3307 10.4427C39.4714 10.5821 39.5504 10.7711 39.5504 10.9682C39.5504 11.1653 39.4714 11.3543 39.3307 11.4936C39.1901 11.633 38.9993 11.7113 38.8004 11.7113H38.7967ZM38.7967 15.6117H36.7501C36.5512 15.6117 36.3604 15.5334 36.2198 15.394C36.0791 15.2547 36.0001 15.0657 36.0001 14.8686C36.0001 14.6715 36.0791 14.4825 36.2198 14.3431C36.3604 14.2038 36.5512 14.1255 36.7501 14.1255H38.8004C38.9993 14.1255 39.1901 14.2038 39.3307 14.3431C39.4714 14.4825 39.5504 14.6715 39.5504 14.8686C39.5504 15.0657 39.4714 15.2547 39.3307 15.394C39.1901 15.5334 38.9993 15.6117 38.8004 15.6117H38.7967ZM38.7967 19.512H36.7501C36.5512 19.512 36.3604 19.4338 36.2198 19.2944C36.0791 19.155 36.0001 18.966 36.0001 18.7689C36.0001 18.5719 36.0791 18.3828 36.2198 18.2435C36.3604 18.1041 36.5512 18.0258 36.7501 18.0258H38.8004C38.9993 18.0258 39.1901 18.1041 39.3307 18.2435C39.4714 18.3828 39.5504 18.5719 39.5504 18.7689C39.5504 18.966 39.4714 19.155 39.3307 19.2944C39.1901 19.4338 38.9993 19.512 38.8004 19.512H38.7967ZM38.7967 23.4124H36.7501C36.5512 23.4124 36.3604 23.3341 36.2198 23.1948C36.0791 23.0554 36.0001 22.8664 36.0001 22.6693C36.0001 22.4722 36.0791 22.2832 36.2198 22.1439C36.3604 22.0045 36.5512 21.9262 36.7501 21.9262H38.8004C38.9993 21.9262 39.1901 22.0045 39.3307 22.1439C39.4714 22.2832 39.5504 22.4722 39.5504 22.6693C39.5504 22.8664 39.4714 23.0554 39.3307 23.1948C39.1901 23.3341 38.9993 23.4124 38.8004 23.4124H38.7967ZM38.7967 27.3137H36.7501C36.5512 27.3137 36.3604 27.2354 36.2198 27.0961C36.0791 26.9567 36.0001 26.7677 36.0001 26.5706C36.0001 26.3735 36.0791 26.1845 36.2198 26.0452C36.3604 25.9058 36.5512 25.8275 36.7501 25.8275H38.8004C38.9993 25.8275 39.1901 25.9058 39.3307 26.0452C39.4714 26.1845 39.5504 26.3735 39.5504 26.5706C39.5504 26.7677 39.4714 26.9567 39.3307 27.0961C39.1901 27.2354 38.9993 27.3137 38.8004 27.3137H38.7967ZM11.0832 14.7153C10.5629 14.7155 10.0542 14.5628 9.62147 14.2765C9.18874 13.9902 8.85142 13.5832 8.65218 13.1069C8.45293 12.6307 8.4007 12.1066 8.50209 11.6009C8.60349 11.0953 8.85396 10.6308 9.22182 10.2662C9.58968 9.90154 10.0584 9.65321 10.5687 9.55256C11.079 9.45192 11.608 9.50348 12.0888 9.70073C12.5695 9.89798 12.9804 10.2321 13.2695 10.6607C13.5586 11.0893 13.7129 11.5933 13.7129 12.1089C13.7122 12.7997 13.4349 13.4621 12.9419 13.9507C12.449 14.4394 11.7805 14.7143 11.0832 14.7153ZM11.0832 10.9896C10.8593 10.9894 10.6404 11.0551 10.4542 11.1783C10.2681 11.3015 10.123 11.4767 10.0375 11.6817C9.95192 11.8867 9.92972 12.1123 9.9737 12.3298C10.0177 12.5473 10.1258 12.747 10.2845 12.9036C10.4431 13.0601 10.6451 13.1664 10.8648 13.2091C11.0846 13.2518 11.3121 13.2288 11.5187 13.1432C11.7252 13.0576 11.9014 12.9132 12.025 12.7282C12.1486 12.5432 12.214 12.326 12.2129 12.1042C12.2112 11.8083 12.0915 11.5251 11.8798 11.3163C11.6682 11.1075 11.3819 10.99 11.0832 10.9896ZM17.8454 18.0751C17.3253 18.0749 16.817 17.9219 16.3847 17.6355C15.9524 17.3491 15.6155 16.9421 15.4166 16.466C15.2177 15.9899 15.1657 15.466 15.2673 14.9607C15.3689 14.4553 15.6194 13.9911 15.9872 13.6268C16.355 13.2626 16.8236 13.0145 17.3337 12.914C17.8438 12.8136 18.3724 12.8652 18.8529 13.0625C19.3334 13.2597 19.744 13.5936 20.0329 14.0221C20.3218 14.4506 20.476 14.9543 20.476 15.4696C20.4753 16.1605 20.1979 16.8229 19.7047 17.3114C19.2115 17.7999 18.5428 18.0746 17.8454 18.0751ZM17.8454 14.3503C17.6218 14.3504 17.4033 14.4164 17.2176 14.5397C17.0318 14.663 16.8872 14.8381 16.8019 15.0429C16.7167 15.2478 16.6948 15.473 16.7388 15.6902C16.7829 15.9074 16.891 16.1067 17.0495 16.263C17.208 16.4192 17.4098 16.5254 17.6292 16.568C17.8486 16.6106 18.0759 16.5877 18.2821 16.5022C18.4884 16.4168 18.6645 16.2726 18.788 16.0879C18.9115 15.9033 18.977 15.6864 18.976 15.4649C18.9746 15.1688 18.8548 14.8853 18.6429 14.6764C18.431 14.4675 18.1443 14.3502 17.8454 14.3503ZM24.6085 12.0791C24.0882 12.0793 23.5795 11.9266 23.1468 11.6403C22.7141 11.354 22.3767 10.947 22.1775 10.4708C21.9782 9.99453 21.926 9.47043 22.0274 8.96477C22.1288 8.45911 22.3793 7.99459 22.7471 7.62998C23.115 7.26537 23.5837 7.01704 24.094 6.9164C24.6044 6.81575 25.1333 6.86731 25.6141 7.06456C26.0948 7.26181 26.5057 7.59588 26.7948 8.02453C27.0839 8.45318 27.2382 8.95714 27.2382 9.47269C27.2375 10.1636 26.9602 10.826 26.4672 11.3146C25.9743 11.8032 25.3058 12.0782 24.6085 12.0791ZM24.6085 8.35339C24.3846 8.35321 24.1657 8.41889 23.9796 8.54212C23.7934 8.66535 23.6483 8.84057 23.5628 9.04558C23.4772 9.25058 23.455 9.47614 23.499 9.69365C23.543 9.91117 23.6512 10.1109 23.8098 10.2674C23.9685 10.4239 24.1704 10.5303 24.3901 10.5729C24.6099 10.6156 24.8374 10.5927 25.044 10.5071C25.2505 10.4214 25.4268 10.277 25.5504 10.092C25.674 9.90705 25.7393 9.68988 25.7382 9.46805C25.7365 9.17214 25.6168 8.88892 25.4052 8.68012C25.1935 8.47132 24.9072 8.35387 24.6085 8.35339ZM31.3707 16.1606C30.8517 16.1597 30.3447 16.0064 29.9136 15.7201C29.4826 15.4337 29.1468 15.0272 28.9489 14.5519C28.7509 14.0765 28.6996 13.5537 28.8014 13.0495C28.9032 12.5453 29.1536 12.0823 29.5209 11.719C29.8882 11.3558 30.3559 11.1085 30.865 11.0085C31.3741 10.9086 31.9017 10.9603 32.381 11.1573C32.8604 11.3543 33.2701 11.6877 33.5583 12.1153C33.8466 12.5429 34.0004 13.0456 34.0004 13.5598C33.9984 14.2498 33.7206 14.9109 33.2277 15.3983C32.7349 15.8858 32.0671 16.1599 31.3707 16.1606ZM31.3707 12.4358C31.1473 12.4358 30.9289 12.5015 30.7431 12.6245C30.5573 12.7475 30.4125 12.9223 30.327 13.1268C30.2415 13.3313 30.2192 13.5564 30.2627 13.7735C30.3063 13.9906 30.4139 14.1901 30.5719 14.3466C30.7299 14.5031 30.9312 14.6097 31.1503 14.6529C31.3695 14.6961 31.5966 14.6739 31.803 14.5892C32.0095 14.5045 32.1859 14.361 32.31 14.177C32.4342 13.9929 32.5004 13.7765 32.5004 13.5551C32.5002 13.2583 32.3811 12.9738 32.1693 12.7639C31.9575 12.5541 31.6703 12.4361 31.3707 12.4358Z" fill="#FF7600"/>
<path d="M16.1654 15.3775C16.0488 15.3776 15.9339 15.3506 15.8298 15.2986L12.4276 13.6089C12.2497 13.5206 12.1145 13.3659 12.0517 13.1788C11.989 12.9917 12.0038 12.7876 12.0929 12.6113C12.1821 12.4351 12.3382 12.3011 12.527 12.2389C12.7159 12.1767 12.9219 12.1914 13.0998 12.2797L16.5001 13.9703C16.651 14.0453 16.772 14.1686 16.8434 14.3203C16.9148 14.4719 16.9324 14.643 16.8935 14.8058C16.8545 14.9686 16.7613 15.1136 16.6288 15.2174C16.4963 15.3211 16.3324 15.3776 16.1635 15.3775H16.1654ZM29.7648 13.3293C29.6272 13.3293 29.4923 13.2917 29.3748 13.2207L25.8235 11.0768C25.7366 11.0275 25.6606 10.9613 25.5999 10.8824C25.5392 10.8034 25.495 10.7132 25.4701 10.6171C25.4451 10.521 25.4399 10.4209 25.4546 10.3227C25.4694 10.2245 25.5038 10.1303 25.5559 10.0455C25.608 9.96075 25.6768 9.88718 25.758 9.82916C25.8393 9.77114 25.9315 9.72984 26.0291 9.70769C26.1268 9.68555 26.2279 9.68301 26.3266 9.70023C26.4252 9.71745 26.5194 9.75408 26.6035 9.80795L30.1557 11.9518C30.2954 12.0362 30.4034 12.1635 30.4632 12.3144C30.5231 12.4652 30.5315 12.6314 30.4872 12.7874C30.4429 12.9434 30.3484 13.0808 30.2179 13.1787C30.0875 13.2765 29.9284 13.3294 29.7648 13.3293ZM19.247 14.9707C19.0943 14.9716 18.9449 14.9263 18.8188 14.8408C18.6928 14.7554 18.5961 14.6338 18.5417 14.4924C18.4872 14.351 18.4777 14.1965 18.5142 14.0496C18.5508 13.9027 18.6318 13.7703 18.7464 13.6702L22.7073 10.1581C22.7804 10.0912 22.8661 10.0394 22.9596 10.0057C23.0531 9.97191 23.1524 9.95694 23.2518 9.9616C23.3512 9.96626 23.4487 9.99047 23.5385 10.0328C23.6283 10.0752 23.7088 10.1348 23.7752 10.2083C23.8415 10.2817 23.8925 10.3675 23.925 10.4607C23.9576 10.5538 23.9711 10.6524 23.9648 10.7508C23.9585 10.8492 23.9326 10.9454 23.8884 11.0337C23.8442 11.122 23.7828 11.2008 23.7076 11.2654L19.7467 14.7775C19.6102 14.9012 19.432 14.9701 19.247 14.9707Z" fill="#FF7600"/>
<path d="M41.7412 35.6747H6.25875C5.17092 35.6735 4.12801 35.2447 3.35888 34.4825C2.58976 33.7202 2.15724 32.6868 2.15625 31.609V7.37724C2.15749 6.29948 2.59008 5.26621 3.35916 4.50403C4.12823 3.74185 5.17099 3.313 6.25875 3.31152H41.7412C42.829 3.313 43.8718 3.74185 44.6408 4.50403C45.4099 5.26621 45.8425 6.29948 45.8438 7.37724V31.609C45.8428 32.6868 45.4102 33.7202 44.6411 34.4825C43.872 35.2447 42.8291 35.6735 41.7412 35.6747ZM6.25875 4.79773C5.56867 4.79872 4.90714 5.07083 4.41927 5.5544C3.93139 6.03796 3.65699 6.6935 3.65625 7.37724V31.609C3.65699 32.2927 3.93139 32.9483 4.41927 33.4318C4.90714 33.9154 5.56867 34.1875 6.25875 34.1885H41.7412C42.4313 34.1875 43.0929 33.9154 43.5807 33.4318C44.0686 32.9483 44.343 32.2927 44.3438 31.609V7.37724C44.343 6.6935 44.0686 6.03796 43.5807 5.5544C43.0929 5.07083 42.4313 4.79872 41.7412 4.79773H6.25875Z" fill="#FF7600"/>
<path d="M16.1392 45.5117C15.9918 45.5117 15.8478 45.4686 15.725 45.388C15.6022 45.3073 15.5061 45.1926 15.4487 45.0581C15.3913 44.9237 15.3751 44.7754 15.4022 44.6319C15.4293 44.4884 15.4985 44.356 15.6011 44.2512C16.7451 43.081 17.4979 41.5903 17.7572 39.9815C18.0165 38.3727 17.7697 36.7238 17.0504 35.2587C16.9736 35.0831 16.9682 34.8849 17.0352 34.7054C17.1022 34.5259 17.2365 34.379 17.4101 34.2952C17.5838 34.2114 17.7834 34.1972 17.9673 34.2555C18.1513 34.3139 18.3054 34.4403 18.3976 34.6085C19.2528 36.3486 19.5465 38.3073 19.2387 40.2185C18.9309 42.1298 18.0366 43.9007 16.6773 45.2907C16.607 45.3612 16.5232 45.4171 16.4308 45.4551C16.3384 45.493 16.2392 45.5123 16.1392 45.5117ZM31.8611 45.5117C31.7607 45.5117 31.6613 45.4917 31.5689 45.4529C31.4765 45.4142 31.3928 45.3574 31.3229 45.286C29.9637 43.8961 29.0693 42.1251 28.7616 40.2139C28.4538 38.3027 28.7474 36.3439 29.6026 34.6039C29.6429 34.5118 29.7016 34.4287 29.7751 34.3597C29.8487 34.2907 29.9356 34.2372 30.0306 34.2024C30.1256 34.1676 30.2267 34.1522 30.3279 34.1572C30.4291 34.1621 30.5282 34.1873 30.6192 34.2313C30.7103 34.2752 30.7914 34.337 30.8577 34.4129C30.924 34.4887 30.9741 34.5771 31.005 34.6727C31.0359 34.7683 31.047 34.8691 31.0375 34.969C31.028 35.0689 30.9982 35.1659 30.9498 35.2541C30.2305 36.7191 29.9837 38.368 30.243 39.9768C30.5023 41.5856 31.2551 43.0764 32.3992 44.2466C32.5018 44.3514 32.5709 44.4838 32.598 44.6273C32.6251 44.7708 32.609 44.919 32.5516 45.0535C32.4942 45.1879 32.3981 45.3027 32.2753 45.3833C32.1525 45.464 32.0084 45.507 31.8611 45.5071V45.5117Z" fill="#FF7600"/>
<path d="M33.8587 45.5124H14.1412C13.9423 45.5124 13.7516 45.4341 13.6109 45.2948C13.4703 45.1554 13.3912 44.9664 13.3912 44.7693C13.3912 44.5722 13.4703 44.3832 13.6109 44.2438C13.7516 44.1045 13.9423 44.0262 14.1412 44.0262H33.8587C34.0577 44.0262 34.2484 44.1045 34.3891 44.2438C34.5297 44.3832 34.6087 44.5722 34.6087 44.7693C34.6087 44.9664 34.5297 45.1554 34.3891 45.2948C34.2484 45.4341 34.0577 45.5124 33.8587 45.5124ZM45.0938 29.766H2.90625C2.70734 29.766 2.51657 29.6877 2.37592 29.5483C2.23527 29.409 2.15625 29.22 2.15625 29.0229C2.15625 28.8258 2.23527 28.6368 2.37592 28.4974C2.51657 28.3581 2.70734 28.2798 2.90625 28.2798H45.0938C45.2927 28.2798 45.4834 28.3581 45.6241 28.4974C45.7647 28.6368 45.8438 28.8258 45.8438 29.0229C45.8438 29.22 45.7647 29.409 45.6241 29.5483C45.4834 29.6877 45.2927 29.766 45.0938 29.766ZM26.1216 32.7198H21.8784C21.6795 32.7198 21.4888 32.6416 21.3481 32.5022C21.2075 32.3628 21.1284 32.1738 21.1284 31.9767C21.1284 31.7797 21.2075 31.5906 21.3481 31.4513C21.4888 31.3119 21.6795 31.2336 21.8784 31.2336H26.1216C26.3205 31.2336 26.5112 31.3119 26.6519 31.4513C26.7925 31.5906 26.8716 31.7797 26.8716 31.9767C26.8716 32.1738 26.7925 32.3628 26.6519 32.5022C26.5112 32.6416 26.3205 32.7198 26.1216 32.7198Z" fill="#FF7600"/>
</svg>
