<svg width="48" height="48" viewBox="0 0 48 48" fill="none" xmlns="http://www.w3.org/2000/svg">
<g clip-path="url(#clip0_638_37106)">
<path d="M37.5 18.9404C34.6058 18.9404 32.25 21.2745 32.25 24.1422C32.25 27.0098 34.6058 29.3439 37.5 29.3439C40.3942 29.3439 42.75 27.0098 42.75 24.1422C42.75 21.2745 40.3942 18.9404 37.5 18.9404ZM37.5 27.8577C35.4323 27.8577 33.75 26.1909 33.75 24.1422C33.75 22.0934 35.4323 20.4266 37.5 20.4266C39.5677 20.4266 41.25 22.0934 41.25 24.1422C41.25 26.1909 39.5677 27.8577 37.5 27.8577Z" fill="#52006A"/>
<path d="M46.0229 20.958C45.9337 20.9268 45.8564 20.848 45.8054 20.7254C45.7792 20.6623 45.7424 20.5382 45.7994 20.4208C45.9626 20.0808 46.0156 19.6991 45.9513 19.3281C45.887 18.9571 45.7085 18.6148 45.4402 18.3482L44.2499 17.1682V3.33527C44.2499 2.10618 43.2404 1.10596 41.9999 1.10596H8.99991C7.75941 1.10596 6.74991 2.10618 6.74991 3.33527V17.1125C6.27851 17.5291 5.90123 18.0398 5.64274 18.6109C5.38425 19.182 5.25039 19.8008 5.24991 20.4267V23.3991H4.31316C3.76828 23.4007 3.24234 23.5974 2.83239 23.953C2.42244 24.3087 2.15616 24.7992 2.08266 25.3342L0.774661 35.0525C0.72131 35.4527 0.754751 35.8595 0.872751 36.2459C0.990751 36.6322 1.19059 36.9891 1.45893 37.2929C1.72727 37.5966 2.05792 37.8401 2.42881 38.007C2.79969 38.174 3.20227 38.2607 3.60966 38.2612H6.74991V44.9492C6.74991 46.1783 7.75941 47.1785 8.99991 47.1785H35.3789C35.9797 47.1785 36.5452 46.9459 36.9697 46.5253L43.5907 39.9652C44.0159 39.5446 44.2499 38.9843 44.2499 38.3891V31.1163L45.4417 29.9355C45.7097 29.6686 45.8879 29.3261 45.952 28.955C46.016 28.5839 45.9627 28.2022 45.7994 27.8622C45.7432 27.7463 45.7799 27.6222 45.8122 27.5449C45.8303 27.4958 45.8586 27.451 45.8951 27.4133C45.9316 27.3755 45.9757 27.3457 46.0244 27.3257C46.3825 27.1999 46.6926 26.9674 46.912 26.66C47.1314 26.3527 47.2495 25.9856 47.2499 25.6091V22.6761C47.2495 22.2992 47.1314 21.9317 46.9117 21.6241C46.692 21.3164 46.3815 21.0838 46.0229 20.958ZM6.74991 20.4267C6.74991 18.7874 8.09541 17.4543 9.74991 17.4543C11.4044 17.4543 12.7499 18.7874 12.7499 20.4267V23.3991H6.74991V20.4267ZM15.9299 25.5296L17.2379 35.2494C17.2633 35.4397 17.2474 35.6331 17.1914 35.8168C17.1353 36.0005 17.0403 36.1702 16.9127 36.3146C16.7851 36.459 16.6279 36.5748 16.4516 36.6542C16.2753 36.7336 16.0839 36.7748 15.8902 36.775H13.8899C14.1119 36.3723 14.2499 35.9175 14.2499 35.4278C14.2499 35.3683 14.2537 35.3096 14.2619 35.2494L15.6359 25.0436C15.715 25.1013 15.7817 25.174 15.8321 25.2574C15.8826 25.3408 15.9158 25.4334 15.9299 25.5296ZM2.24991 35.4278C2.24991 35.3683 2.25366 35.3096 2.26191 35.2494L3.56991 25.5304C3.61941 25.1625 3.93891 24.8853 4.31316 24.8853H14.1427L12.7747 35.0525C12.7582 35.1769 12.7499 35.3023 12.7499 35.4278C12.7499 36.1709 12.1402 36.775 11.3902 36.775H3.60966C2.85966 36.775 2.24991 36.1709 2.24991 35.4278ZM8.24991 44.9492V38.2612H15.8902C16.2975 38.2607 16.7 38.174 17.0708 38.0071C17.4416 37.8401 17.7723 37.5967 18.0406 37.2931C18.3089 36.9895 18.5088 36.6326 18.6268 36.2464C18.7449 35.8601 18.7784 35.4534 18.7252 35.0533L17.4172 25.3334C17.3435 24.7986 17.0771 24.3083 16.6672 23.9528C16.2573 23.5973 15.7314 23.4006 15.1867 23.3991H14.2499V20.4267C14.2499 17.9678 12.2317 15.9681 9.74991 15.9681C9.22341 15.9681 8.72016 16.0632 8.24991 16.2282V3.33527C8.24991 3.13819 8.32893 2.94918 8.46958 2.80982C8.61023 2.67046 8.801 2.59217 8.99991 2.59217H41.9999C42.1988 2.59217 42.3896 2.67046 42.5302 2.80982C42.6709 2.94918 42.7499 3.13819 42.7499 3.33527V15.8848C42.5122 15.7861 42.2562 15.7382 41.9985 15.744C41.7408 15.7499 41.4873 15.8096 41.2544 15.919C41.1382 15.9733 41.0129 15.9383 40.9342 15.9064C40.8846 15.8884 40.8394 15.8604 40.8013 15.8242C40.7632 15.788 40.7331 15.7444 40.7129 15.6961C40.5859 15.3413 40.3513 15.0341 40.0411 14.8167C39.7309 14.5993 39.3604 14.4823 38.9804 14.4819H36.0202C35.6398 14.4823 35.269 14.5994 34.9585 14.8171C34.648 15.0348 34.4131 15.3424 34.2862 15.6976C34.2547 15.786 34.1752 15.8626 34.0514 15.9131C34.0034 15.9352 33.9512 15.9472 33.8983 15.9482C33.8453 15.9493 33.7928 15.9393 33.7439 15.919C33.4008 15.7574 33.0156 15.7048 32.6411 15.7685C32.2666 15.8322 31.9212 16.0091 31.6522 16.275L29.5582 18.3497C29.2901 18.6166 29.1119 18.9591 29.0479 19.3302C28.9838 19.7013 29.0371 20.083 29.2004 20.423C29.2567 20.5389 29.2199 20.663 29.1877 20.7403C29.1695 20.7894 29.1413 20.8342 29.1047 20.8719C29.0682 20.9097 29.0242 20.9395 28.9754 20.9595C28.6172 21.085 28.3071 21.3173 28.0876 21.6246C27.8682 21.9319 27.7502 22.2989 27.7499 22.6753V25.6084C27.7499 26.379 28.2427 27.0693 28.9769 27.3264C29.0662 27.3577 29.1434 27.4364 29.1944 27.559C29.2207 27.6222 29.2574 27.7463 29.2004 27.8637C29.0372 28.2037 28.9842 28.5854 29.0485 28.9564C29.1128 29.3274 29.2914 29.6697 29.5597 29.9362L31.6537 32.011C31.923 32.2766 32.2686 32.4533 32.6432 32.5168C33.0178 32.5802 33.4031 32.5274 33.7462 32.3654C33.8632 32.3112 33.9877 32.3461 34.0664 32.3781C34.116 32.3961 34.1612 32.4241 34.1993 32.4603C34.2374 32.4965 34.2675 32.5401 34.2877 32.5884C34.4143 32.9433 34.6488 33.2506 34.9589 33.468C35.269 33.6854 35.6395 33.8023 36.0194 33.8026H38.9797C39.36 33.8021 39.7309 33.685 40.0413 33.4674C40.3518 33.2497 40.5867 32.9421 40.7137 32.5869C40.7452 32.4985 40.8247 32.4219 40.9484 32.3714C41.0122 32.3454 41.1382 32.3097 41.2559 32.3654C41.4887 32.4743 41.742 32.5335 41.9993 32.5392C42.2567 32.545 42.5124 32.4972 42.7499 32.3989V38.2612H37.4999C36.2594 38.2612 35.2499 39.2615 35.2499 40.4906V45.6923H8.99991C8.801 45.6923 8.61023 45.614 8.46958 45.4747C8.32893 45.3353 8.24991 45.1463 8.24991 44.9492ZM36.7499 44.6416V40.4906C36.7499 40.2935 36.8289 40.1045 36.9696 39.9651C37.1102 39.8258 37.301 39.7475 37.4999 39.7475H41.6894L36.7499 44.6416ZM45.7499 25.6091C45.7499 25.7503 45.6592 25.8774 45.5249 25.9249C45.0359 26.0951 44.6354 26.4778 44.4209 26.9876C44.2109 27.4855 44.2199 28.0391 44.4457 28.5043C44.4757 28.5669 44.4855 28.6372 44.4737 28.7056C44.4619 28.774 44.429 28.8371 44.3797 28.8862L42.2872 30.9595C42.2375 31.0081 42.1741 31.0406 42.1053 31.0526C42.0366 31.0645 41.9658 31.0554 41.9024 31.0264C41.4322 30.802 40.8742 30.7938 40.3559 31.007C40.1127 31.1049 39.8929 31.2522 39.7107 31.4394C39.5285 31.6267 39.3881 31.8498 39.2984 32.0942C39.2749 32.1592 39.2318 32.2154 39.1749 32.2551C39.118 32.2949 39.0501 32.3163 38.9804 32.3164H36.0202C35.9504 32.3162 35.8823 32.2947 35.8253 32.2548C35.7682 32.2149 35.725 32.1586 35.7014 32.0935C35.5297 31.609 35.1434 31.2121 34.6289 30.9996C34.3924 30.9012 34.1385 30.8504 33.8819 30.8503C33.6104 30.8503 33.3419 30.9082 33.0982 31.0241C33.035 31.054 32.964 31.0638 32.8949 31.0521C32.8259 31.0404 32.7622 31.0078 32.7127 30.9587L30.6202 28.8855C30.5707 28.8365 30.5377 28.7737 30.5256 28.7054C30.5135 28.6372 30.523 28.567 30.5527 28.5043C30.7792 28.0376 30.7882 27.484 30.5722 26.972C30.4734 26.731 30.3248 26.5132 30.1358 26.3327C29.9468 26.1522 29.7216 26.0131 29.4749 25.9242C29.4091 25.9012 29.3522 25.8585 29.3119 25.8021C29.2716 25.7457 29.25 25.6782 29.2499 25.6091V22.6761C29.2499 22.5349 29.3407 22.4078 29.4749 22.3603C29.9639 22.1901 30.3644 21.8074 30.5789 21.2976C30.7889 20.7997 30.7799 20.2461 30.5542 19.781C30.5241 19.7183 30.5143 19.648 30.5261 19.5796C30.5379 19.5112 30.5708 19.4482 30.6202 19.399L32.7127 17.3257C32.7623 17.2772 32.8258 17.2448 32.8945 17.2328C32.9632 17.2209 33.034 17.23 33.0974 17.2588C33.5684 17.484 34.1272 17.4922 34.6439 17.2782C34.8871 17.1804 35.1069 17.0331 35.2891 16.8458C35.4713 16.6585 35.6117 16.4354 35.7014 16.191C35.7247 16.1258 35.7677 16.0694 35.8247 16.0295C35.8816 15.9896 35.9497 15.9681 36.0194 15.9681H38.9797C39.1222 15.9681 39.2504 16.058 39.2984 16.191C39.4702 16.6755 39.8564 17.0723 40.3709 17.2849C40.6134 17.388 40.8751 17.4392 41.1389 17.4349C41.4028 17.4307 41.6627 17.3712 41.9017 17.2603C41.965 17.2311 42.0358 17.2217 42.1047 17.2334C42.1736 17.245 42.2372 17.2773 42.2872 17.3257L44.3797 19.399C44.4291 19.4479 44.4622 19.5108 44.4742 19.579C44.4863 19.6472 44.4769 19.7175 44.4472 19.7802C44.2207 20.2469 44.2117 20.8005 44.4277 21.3125C44.5264 21.5535 44.675 21.7713 44.8641 21.9518C45.0531 22.1322 45.2782 22.2714 45.5249 22.3603C45.5907 22.3833 45.6476 22.426 45.6879 22.4824C45.7282 22.5388 45.7499 22.6062 45.7499 22.6753V25.6091Z" fill="#52006A"/>
<path d="M20.4697 38.4792L16.4999 42.4125L15.5302 41.4516L14.4697 42.5024L16.4999 44.514L21.5302 39.53L20.4697 38.4792ZM22.4999 42.4125L21.5302 41.4516L20.4697 42.5024L22.4999 44.514L27.5302 39.53L26.4697 38.4792L22.4999 42.4125ZM29.2499 4.07861H9.74994V11.5097H29.2499V4.07861ZM27.7499 10.0235H11.2499V5.56482H27.7499V10.0235ZM30.7499 10.0235H41.2499V11.5097H30.7499V10.0235ZM39.7499 7.05104H41.2499V8.53725H39.7499V7.05104ZM30.7499 7.05104H38.2499V8.53725H30.7499V7.05104ZM30.7499 4.07861H41.2499V5.56482H30.7499V4.07861ZM9.74994 12.9959H11.2499V14.4821H9.74994V12.9959ZM12.7499 12.9959H29.2499V14.4821H12.7499V12.9959ZM14.2499 15.9683H27.7499V17.4545H14.2499V15.9683ZM29.2499 39.7477H33.7499V41.2339H29.2499V39.7477ZM29.2499 42.7201H33.7499V44.2063H29.2499V42.7201ZM29.2499 36.7753H33.7499V38.2615H29.2499V36.7753ZM12.9149 26.3718H5.38569L3.58569 35.2891H11.1149L12.9149 26.3718ZM9.88569 33.8028H5.41494L6.61494 27.858H11.0857L9.88569 33.8028ZM22.4999 20.4269C20.4322 20.4269 18.7499 22.0937 18.7499 24.1425C18.7499 26.1912 20.4322 27.858 22.4999 27.858C24.5677 27.858 26.2499 26.1912 26.2499 24.1425C26.2499 22.0937 24.5677 20.4269 22.4999 20.4269ZM22.4999 26.3718C21.2594 26.3718 20.2499 25.3716 20.2499 24.1425C20.2499 22.9134 21.2594 21.9132 22.4999 21.9132C23.7404 21.9132 24.7499 22.9134 24.7499 24.1425C24.7499 25.3716 23.7404 26.3718 22.4999 26.3718ZM19.4999 29.3442H25.4999V30.8304H19.4999V29.3442ZM19.4999 32.3166H25.4999V33.8028H19.4999V32.3166ZM19.4999 35.2891H25.4999V36.7753H19.4999V35.2891Z" fill="#52006A"/>
</g>
<defs>
<clipPath id="clip0_638_37106">
<rect width="48" height="47.5588" fill="white" transform="translate(0 0.362793)"/>
</clipPath>
</defs>
</svg>
