<svg width="20" height="25" viewBox="0 0 20 25" fill="none" xmlns="http://www.w3.org/2000/svg">
<path d="M19.0176 19.881L17.9459 6.37592C17.8794 5.50578 17.1432 4.82445 16.2708 4.82445H14.1537V7.96119C14.1537 8.34964 13.8393 8.66408 13.4508 8.66408C13.0628 8.66408 12.7479 8.34964 12.7479 7.96119V4.82445H6.28147V7.96119C6.28147 8.34964 5.96656 8.66408 5.57858 8.66408C5.19012 8.66408 4.87569 8.34964 4.87569 7.96119V4.82445H2.75862C1.88614 4.82445 1.14997 5.50578 1.08345 6.37405L0.0113263 19.8829C-0.0715956 20.9649 0.303732 22.0417 1.04079 22.8373C1.7779 23.633 2.82284 24.0898 3.90762 24.0898H15.1218C16.2066 24.0898 17.2515 23.633 17.9886 22.8373C18.7257 22.0416 19.101 20.9648 19.0176 19.881ZM12.6814 13.0036L9.04611 16.6389C8.9809 16.7043 8.90342 16.7562 8.8181 16.7916C8.73278 16.8269 8.64131 16.8451 8.54895 16.845C8.45659 16.8451 8.36512 16.8269 8.2798 16.7916C8.19448 16.7562 8.117 16.7043 8.05179 16.6389L6.34803 14.9351C6.07344 14.6605 6.07344 14.2158 6.34803 13.9412C6.62262 13.6666 7.06779 13.6666 7.34192 13.9412L8.549 15.1478L11.6876 12.0093C11.9617 11.7351 12.4069 11.7351 12.6815 12.0093C12.956 12.2839 12.956 12.729 12.6814 13.0036ZM9.51472 0.0898438C6.9567 0.0898438 4.87573 2.17128 4.87573 4.7293V4.82441H6.28151V4.7293C6.28151 2.94631 7.73178 1.49558 9.51476 1.49558C11.2977 1.49558 12.748 2.94631 12.748 4.7293V4.82441H14.1537V4.7293C14.1537 2.17128 12.0727 0.0898438 9.51472 0.0898438Z" fill="#52006A"/>
</svg>
