<svg width="35" height="31" viewBox="0 0 35 31" fill="none" xmlns="http://www.w3.org/2000/svg">
<path d="M25.706 10.25H8.77C8.347 10.25 8 9.744 8 9.125C8 8.506 8.346 8 8.77 8H25.706C26.129 8 26.476 8.506 26.476 9.125C26.476 9.744 26.129 10.25 25.706 10.25Z" fill="#201747"/>
<path d="M25.706 16.625H8.77C8.347 16.625 8 16.119 8 15.5C8 14.881 8.346 14.375 8.77 14.375H25.706C26.129 14.375 26.476 14.881 26.476 15.5C26.476 16.119 26.129 16.625 25.706 16.625Z" fill="#201747"/>
<path d="M25.706 23H8.77C8.347 23 8 22.494 8 21.875C8 21.256 8.346 20.75 8.77 20.75H25.706C26.129 20.75 26.476 21.256 26.476 21.875C26.476 22.494 26.129 23 25.706 23Z" fill="#201747"/>
</svg>
