<svg width="32" height="32" viewBox="0 0 32 32" fill="none" xmlns="http://www.w3.org/2000/svg">
<path d="M31.9987 16.0007C31.9987 7.16296 24.8357 0 15.9993 0C7.16296 0 0 7.16296 0 16.0007C0 23.985 5.85091 30.6039 13.4992 31.804V20.6249H9.43773V15.9993H13.4992V12.4752C13.4992 8.46435 15.8887 6.24959 19.5421 6.24959C21.2929 6.24959 23.1236 6.56161 23.1236 6.56161V10.4991H21.1075C19.1208 10.4991 18.5008 11.7325 18.5008 12.9979V16.0007H22.9383L22.2289 20.6262H18.5008V31.8053C26.1491 30.6053 32 23.9863 32 16.0007H31.9987Z" fill="white"/>
</svg>
