<svg width="24" height="24" viewBox="0 0 24 24" fill="none" xmlns="http://www.w3.org/2000/svg">
<path d="M20 6.75C21.5188 6.75 22.75 5.51878 22.75 4C22.75 2.48122 21.5188 1.25 20 1.25C18.4812 1.25 17.25 2.48122 17.25 4C17.25 5.51878 18.4812 6.75 20 6.75Z" fill="#FF7600"/>
<path opacity="0.4" d="M15.7696 2.5C15.5973 2.96714 15.5 3.4712 15.5 4C15.5 6.48614 17.5139 8.5 20 8.5C20.5288 8.5 21.0329 8.4027 21.5 8.2304V13.96C21.5 16.4319 19.4858 18.44 17 18.44H15.5C15.0314 18.44 14.585 18.6649 14.3019 19.0375L14.3007 19.039L12.8007 21.029L12.8 21.03C12.5506 21.3626 12.2559 21.49 12 21.49C11.7441 21.49 11.4494 21.3626 11.2 21.03L11.1993 21.029L9.69928 19.039L9.69931 19.039L9.69564 19.0343C9.55281 18.8494 9.35354 18.7065 9.16111 18.6103C8.96956 18.5145 8.73469 18.44 8.5 18.44H7C4.51418 18.44 2.5 16.4319 2.5 13.96V12.96V6.98C2.5 4.5081 4.51418 2.5 7 2.5H15.7696Z" stroke="#FF7600"/>
<path d="M12 12C11.44 12 11 11.55 11 11C11 10.45 11.45 10 12 10C12.55 10 13 10.45 13 11C13 11.55 12.56 12 12 12Z" fill="#FF7600"/>
<path d="M16 12C15.44 12 15 11.55 15 11C15 10.45 15.45 10 16 10C16.55 10 17 10.45 17 11C17 11.55 16.56 12 16 12Z" fill="#FF7600"/>
<path d="M8 12C7.44 12 7 11.55 7 11C7 10.45 7.45 10 8 10C8.55 10 9 10.45 9 11C9 11.55 8.56 12 8 12Z" fill="#FF7600"/>
</svg>
