<svg width="35" height="35" viewBox="0 0 35 35" fill="none" xmlns="http://www.w3.org/2000/svg">
<path d="M24.2225 12.1466L12.1246 23.9986C11.8224 24.2946 11.2205 24.176 10.7873 23.7338C10.3541 23.2916 10.2472 22.688 10.55 22.3913L22.6479 10.5394C22.9501 10.2433 23.5521 10.362 23.9852 10.8041C24.4184 11.2463 24.5247 11.8506 24.2225 12.1466Z" fill="#201747"/>
<path d="M10.55 12.1461L22.6479 23.9981C22.95 24.2941 23.552 24.1755 23.9852 23.7333C24.4184 23.2911 24.5253 22.6876 24.2224 22.3908L12.1245 10.5389C11.8224 10.2428 11.2204 10.3615 10.7872 10.8036C10.354 11.2458 10.2478 11.8501 10.55 12.1461Z" fill="#201747"/>
</svg>
