<svg width="24" height="24" viewBox="0 0 24 24" fill="none" xmlns="http://www.w3.org/2000/svg">
<path opacity="0.8" d="M12.9 2.52009L12.87 2.59009L9.97001 9.32009H7.12001C6.44001 9.32009 5.80001 9.45009 5.20001 9.71009L6.95001 5.53009L6.99001 5.44009L7.05001 5.28009C7.08001 5.21009 7.10001 5.15009 7.13001 5.10009C8.44001 2.07009 9.92001 1.38009 12.9 2.52009Z" fill="#FF7600"/>
<path d="M18.29 9.52002C17.84 9.39002 17.37 9.32002 16.88 9.32002H9.97L12.87 2.59002L12.9 2.52002C13.04 2.57002 13.19 2.64002 13.34 2.69002L15.55 3.62002C16.78 4.13002 17.64 4.66002 18.17 5.30002C18.26 5.42002 18.34 5.53002 18.42 5.66002C18.51 5.80002 18.58 5.94002 18.62 6.09002C18.66 6.18002 18.69 6.26002 18.71 6.35002C18.97 7.20002 18.81 8.23002 18.29 9.52002Z" fill="#FF7600"/>
<path opacity="0.4" d="M21.76 14.2001V16.1501C21.76 16.3501 21.75 16.5501 21.74 16.7401C21.55 20.2401 19.6 22.0001 15.9 22.0001H8.09999C7.84999 22.0001 7.61999 21.9801 7.38999 21.9501C4.20999 21.7401 2.50999 20.0401 2.28999 16.8601C2.25999 16.6201 2.23999 16.3901 2.23999 16.1501V14.2001C2.23999 12.1901 3.45999 10.4601 5.19999 9.71007C5.79999 9.45007 6.43999 9.32007 7.11999 9.32007H16.88C17.37 9.32007 17.84 9.39007 18.29 9.52007C20.29 10.1301 21.76 11.9901 21.76 14.2001Z" fill="#FF7600"/>
<path opacity="0.6" d="M6.94999 5.53003L5.19999 9.71003C3.45999 10.46 2.23999 12.19 2.23999 14.2V11.27C2.23999 8.43003 4.25999 6.06003 6.94999 5.53003Z" fill="#FF7600"/>
<path opacity="0.6" d="M21.76 11.2701V14.2001C21.76 11.9901 20.29 10.1301 18.29 9.52009C18.81 8.23009 18.97 7.20009 18.71 6.35009C18.69 6.26009 18.66 6.18009 18.62 6.09009C20.49 7.06009 21.76 9.03009 21.76 11.2701Z" fill="#FF7600"/>
</svg>
