<svg width="24" height="24" viewBox="0 0 24 24" fill="none" xmlns="http://www.w3.org/2000/svg">
<path opacity="0.4" d="M1.99994 9.75C1.58994 9.75 1.24994 9.41 1.24994 9V6.5C1.24994 3.6 3.60994 1.25 6.49994 1.25H8.99994C9.40994 1.25 9.74994 1.59 9.74994 2C9.74994 2.41 9.40994 2.75 8.99994 2.75H6.49994C4.42994 2.75 2.74994 4.43 2.74994 6.5V9C2.74994 9.41 2.40994 9.75 1.99994 9.75Z" fill="#52006A"/>
<path d="M21.9999 9.75C21.5899 9.75 21.2499 9.41 21.2499 9V6.5C21.2499 4.43 19.5699 2.75 17.4999 2.75H14.9999C14.5899 2.75 14.2499 2.41 14.2499 2C14.2499 1.59 14.5899 1.25 14.9999 1.25H17.4999C20.3899 1.25 22.7499 3.6 22.7499 6.5V9C22.7499 9.41 22.4099 9.75 21.9999 9.75Z" fill="#52006A"/>
<path opacity="0.4" d="M17.4999 22.75H15.9999C15.5899 22.75 15.2499 22.41 15.2499 22C15.2499 21.59 15.5899 21.25 15.9999 21.25H17.4999C19.5699 21.25 21.2499 19.57 21.2499 17.5V16C21.2499 15.59 21.5899 15.25 21.9999 15.25C22.4099 15.25 22.7499 15.59 22.7499 16V17.5C22.7499 20.4 20.3899 22.75 17.4999 22.75Z" fill="#52006A"/>
<path d="M8.99994 22.75H6.49994C3.60994 22.75 1.24994 20.4 1.24994 17.5V15C1.24994 14.59 1.58994 14.25 1.99994 14.25C2.40994 14.25 2.74994 14.59 2.74994 15V17.5C2.74994 19.57 4.42994 21.25 6.49994 21.25H8.99994C9.40994 21.25 9.74994 21.59 9.74994 22C9.74994 22.41 9.40994 22.75 8.99994 22.75Z" fill="#52006A"/>
<path d="M8.99994 5.25H6.99994C5.85994 5.25 5.24994 5.85 5.24994 7V9C5.24994 10.15 5.85994 10.75 6.99994 10.75H8.99994C10.1399 10.75 10.7499 10.15 10.7499 9V7C10.7499 5.85 10.1399 5.25 8.99994 5.25Z" fill="#52006A"/>
<path opacity="0.4" d="M16.9999 5.25H14.9999C13.8599 5.25 13.2499 5.85 13.2499 7V9C13.2499 10.15 13.8599 10.75 14.9999 10.75H16.9999C18.1399 10.75 18.7499 10.15 18.7499 9V7C18.7499 5.85 18.1399 5.25 16.9999 5.25Z" fill="#52006A"/>
<path opacity="0.4" d="M8.99994 13.25H6.99994C5.85994 13.25 5.24994 13.85 5.24994 15V17C5.24994 18.15 5.85994 18.75 6.99994 18.75H8.99994C10.1399 18.75 10.7499 18.15 10.7499 17V15C10.7499 13.85 10.1399 13.25 8.99994 13.25Z" fill="#52006A"/>
<path d="M16.9999 13.25H14.9999C13.8599 13.25 13.2499 13.85 13.2499 15V17C13.2499 18.15 13.8599 18.75 14.9999 18.75H16.9999C18.1399 18.75 18.7499 18.15 18.7499 17V15C18.7499 13.85 18.1399 13.25 16.9999 13.25Z" fill="#52006A"/>
</svg>
